<svg width="132" height="38" viewBox="0 0 132 38" fill="none" xmlns="http://www.w3.org/2000/svg">
                            <path d="M127.111 38H4.88889C2.20122 38 0 35.8613 0 33.25V4.75C0 2.13869 2.20122 4.76837e-07 4.88889 4.76837e-07H127.111C129.799 4.76837e-07 132 2.13869 132 4.75V33.25C132 35.8613 129.799 38 127.111 38Z" fill="black"></path>
                            <path d="M127.111 0.761188C129.375 0.761188 131.217 2.55075 131.217 4.75V33.25C131.217 35.4492 129.375 37.2388 127.111 37.2388H4.88889C2.62533 37.2388 0.783444 35.4492 0.783444 33.25V4.75C0.783444 2.55075 2.62533 0.761188 4.88889 0.761188H127.111ZM127.111 4.76837e-07H4.88889C2.20122 4.76837e-07 0 2.13869 0 4.75V33.25C0 35.8613 2.20122 38 4.88889 38H127.111C129.799 38 132 35.8613 132 33.25V4.75C132 2.13869 129.799 4.76837e-07 127.111 4.76837e-07Z" fill="#A6A6A6"></path>
                            <path d="M46.3638 9.73179C46.3638 10.525 46.1194 11.1603 45.6378 11.6342C45.0842 12.1958 44.363 12.4785 43.4794 12.4785C42.6348 12.4785 41.9137 12.1911 41.3221 11.6247C40.7294 11.0499 40.4336 10.3445 40.4336 9.50022C40.4336 8.65591 40.7294 7.95054 41.3221 7.38054C41.9137 6.80935 42.6348 6.52197 43.4794 6.52197C43.8998 6.52197 44.3007 6.60629 44.6833 6.76304C45.0646 6.92097 45.375 7.13472 45.5999 7.39835L45.089 7.89947C44.6967 7.44941 44.1626 7.22735 43.4794 7.22735C42.8634 7.22735 42.3293 7.43635 41.8758 7.85791C41.4273 8.28066 41.2024 8.8281 41.2024 9.50022C41.2024 10.1723 41.4273 10.7245 41.8758 11.1473C42.3293 11.5641 42.8634 11.7778 43.4794 11.7778C44.1333 11.7778 44.6833 11.5641 45.1172 11.1425C45.4032 10.8635 45.5657 10.4787 45.6085 9.9871H43.4794V9.30072H46.3198C46.354 9.44916 46.3638 9.59285 46.3638 9.73179Z" fill="white" stroke="white" stroke-width="0.16" stroke-miterlimit="10"></path>
                            <path d="M50.8707 7.35178H48.2026V9.15678H50.6079V9.84316H48.2026V11.6482H50.8707V12.3476H47.4473V6.65234H50.8707V7.35178Z" fill="white" stroke="white" stroke-width="0.16" stroke-miterlimit="10"></path>
                            <path d="M54.0501 12.3476H53.2948V7.35178H51.6582V6.65234H55.6879V7.35178H54.0501V12.3476Z" fill="white" stroke="white" stroke-width="0.16" stroke-miterlimit="10"></path>
                            <path d="M58.6035 12.3476V6.65234H59.3576V12.3476H58.6035Z" fill="white" stroke="white" stroke-width="0.16" stroke-miterlimit="10"></path>
                            <path d="M62.7005 12.3476H61.9513V7.35178H60.3086V6.65234H64.3431V7.35178H62.7005V12.3476Z" fill="white" stroke="white" stroke-width="0.16" stroke-miterlimit="10"></path>
                            <path d="M71.973 11.6152C71.3949 12.1911 70.6786 12.4785 69.8243 12.4785C68.9651 12.4785 68.2489 12.1911 67.6708 11.6152C67.0939 11.0404 66.8066 10.335 66.8066 9.50022C66.8066 8.66541 67.0939 7.96004 67.6708 7.38529C68.2489 6.80935 68.9651 6.52197 69.8243 6.52197C70.6738 6.52197 71.39 6.80935 71.9681 7.39004C72.5499 7.96954 72.8371 8.67016 72.8371 9.50022C72.8371 10.335 72.5499 11.0404 71.973 11.6152ZM68.2293 11.1378C68.6644 11.5641 69.1936 11.7778 69.8243 11.7778C70.4501 11.7778 70.9842 11.5641 71.4144 11.1378C71.8483 10.7115 72.0683 10.164 72.0683 9.50022C72.0683 8.83641 71.8483 8.28897 71.4144 7.86266C70.9842 7.43635 70.4501 7.2226 69.8243 7.2226C69.1936 7.2226 68.6644 7.43635 68.2293 7.86266C67.7954 8.28897 67.5754 8.83641 67.5754 9.50022C67.5754 10.164 67.7954 10.7115 68.2293 11.1378Z" fill="white" stroke="white" stroke-width="0.16" stroke-miterlimit="10"></path>
                            <path d="M73.8965 12.3476V6.65234H74.8132L77.6634 11.0817H77.6964L77.6634 9.98684V6.65234H78.4175V12.3476H77.6304L74.6457 7.69972H74.6127L74.6457 8.79934V12.3476H73.8965Z" fill="white" stroke="white" stroke-width="0.16" stroke-miterlimit="10"></path>
                            <path d="M66.6218 20.6648C64.3252 20.6648 62.4491 22.3629 62.4491 24.7058C62.4491 27.0298 64.3252 28.7457 66.6218 28.7457C68.9232 28.7457 70.7993 27.0298 70.7993 24.7058C70.7993 22.3629 68.9232 20.6648 66.6218 20.6648ZM66.6218 27.1545C65.3617 27.1545 64.2776 26.1439 64.2776 24.7058C64.2776 23.2488 65.3617 22.256 66.6218 22.256C67.8819 22.256 68.9709 23.2488 68.9709 24.7058C68.9709 26.1439 67.8819 27.1545 66.6218 27.1545ZM57.5175 20.6648C55.216 20.6648 53.3448 22.3629 53.3448 24.7058C53.3448 27.0298 55.216 28.7457 57.5175 28.7457C59.8177 28.7457 61.6901 27.0298 61.6901 24.7058C61.6901 22.3629 59.8177 20.6648 57.5175 20.6648ZM57.5175 27.1545C56.2561 27.1545 55.1683 26.1439 55.1683 24.7058C55.1683 23.2488 56.2561 22.256 57.5175 22.256C58.7776 22.256 59.8617 23.2488 59.8617 24.7058C59.8617 26.1439 58.7776 27.1545 57.5175 27.1545ZM46.6837 21.9033V23.6205H50.904C50.7806 24.58 50.4506 25.2853 49.9446 25.777C49.3286 26.3707 48.3691 27.0298 46.6837 27.0298C44.0865 27.0298 42.0527 24.9932 42.0527 22.4698C42.0527 19.9464 44.0865 17.9098 46.6837 17.9098C48.088 17.9098 49.1098 18.443 49.8639 19.1341L51.1093 17.924C50.0546 16.9455 48.6515 16.1938 46.6837 16.1938C43.1221 16.1938 40.1289 19.0094 40.1289 22.4698C40.1289 25.9302 43.1221 28.7457 46.6837 28.7457C48.6087 28.7457 50.0546 28.133 51.1912 26.9835C52.356 25.8518 52.719 24.2605 52.719 22.9757C52.719 22.5767 52.6848 22.2097 52.6237 21.9033H46.6837ZM90.9843 23.2345C90.6409 22.3308 89.5812 20.6648 87.4228 20.6648C85.2839 20.6648 83.5031 22.3024 83.5031 24.7058C83.5031 26.9692 85.2656 28.7457 87.6281 28.7457C89.5384 28.7457 90.6409 27.614 91.0943 26.955L89.6766 26.037C89.2036 26.7092 88.5594 27.1545 87.6281 27.1545C86.7029 27.1545 86.0392 26.7424 85.6139 25.9302L91.1762 23.6941L90.9843 23.2345ZM85.3132 24.58C85.2656 23.022 86.5587 22.224 87.4851 22.224C88.2111 22.224 88.8271 22.5767 89.0324 23.0813L85.3132 24.58ZM80.7922 28.4999H82.6207V16.6249H80.7922V28.4999ZM77.7978 21.5649H77.7367C77.326 21.0923 76.5426 20.6648 75.5501 20.6648C73.4675 20.6648 71.5632 22.4413 71.5632 24.7189C71.5632 26.9835 73.4675 28.7457 75.5501 28.7457C76.5426 28.7457 77.326 28.3147 77.7367 27.8278H77.7978V28.4073C77.7978 29.9522 76.9483 30.7823 75.5782 30.7823C74.4611 30.7823 73.7681 29.9985 73.4821 29.3395L71.892 29.9843C72.3503 31.0554 73.564 32.3735 75.5782 32.3735C77.722 32.3735 79.5309 31.148 79.5309 28.1662V20.9106H77.7978V21.5649ZM75.7066 27.1545C74.4464 27.1545 73.3917 26.1297 73.3917 24.7189C73.3917 23.2951 74.4464 22.256 75.7066 22.256C76.9483 22.256 77.9273 23.2951 77.9273 24.7189C77.9273 26.1297 76.9483 27.1545 75.7066 27.1545ZM99.5448 16.6249H95.1717V28.4999H96.9952V24.0005H99.5448C101.57 24.0005 103.556 22.5767 103.556 20.3121C103.556 18.0487 101.565 16.6249 99.5448 16.6249ZM99.5924 22.3487H96.9952V18.2767H99.5924C100.954 18.2767 101.731 19.3752 101.731 20.3121C101.731 21.2312 100.954 22.3487 99.5924 22.3487ZM110.865 20.6422C109.547 20.6422 108.177 21.2075 107.614 22.4603L109.232 23.1193C109.58 22.4603 110.221 22.2465 110.898 22.2465C111.844 22.2465 112.803 22.7987 112.818 23.7737V23.8983C112.488 23.7131 111.782 23.4388 110.913 23.4388C109.17 23.4388 107.394 24.371 107.394 26.1107C107.394 27.7019 108.821 28.7267 110.426 28.7267C111.653 28.7267 112.33 28.1888 112.756 27.563H112.818V28.4809H114.579V23.9257C114.579 21.8202 112.961 20.6422 110.865 20.6422ZM110.645 27.1497C110.049 27.1497 109.217 26.8623 109.217 26.1439C109.217 25.2248 110.254 24.8721 111.151 24.8721C111.954 24.8721 112.33 25.0443 112.818 25.2711C112.675 26.3707 111.701 27.1497 110.645 27.1497ZM120.996 20.9023L118.9 26.0501H118.838L116.671 20.9023H114.704L117.96 28.0962L116.102 32.0992H118.008L123.025 20.9023H120.996ZM104.558 28.4999H106.387V16.6249H104.558V28.4999Z" fill="white"></path>
                            <path d="M10.2034 7.16197C9.91622 7.4541 9.75 7.90891 9.75 8.49791V29.5072C9.75 30.0962 9.91622 30.551 10.2034 30.8431L10.2743 30.9072L22.3914 19.1391V18.8612L10.2743 7.0931L10.2034 7.16197Z" fill="url(#paint0_linear_6690_28638)"></path>
                            <path d="M26.4252 23.0635L22.3906 19.1388V18.8609L26.4301 14.9362L26.5205 14.9873L31.3043 17.6319C32.6695 18.3824 32.6695 19.6174 31.3043 20.3726L26.5205 23.0124L26.4252 23.0635Z" fill="url(#paint1_linear_6690_28638)"></path>
                            <path d="M26.521 23.0124L22.3911 18.9998L10.2031 30.8427C10.6566 31.3059 11.396 31.3617 12.2369 30.8985L26.521 23.0124Z" fill="url(#paint2_linear_6690_28638)"></path>
                            <path d="M26.521 14.9874L12.2369 7.10125C11.396 6.64288 10.6566 6.69869 10.2031 7.16181L22.3911 19L26.521 14.9874Z" fill="url(#paint3_linear_6690_28638)"></path>
                            <defs>
                                <linearGradient id="paint0_linear_6690_28638" x1="21.3156" y1="29.7259" x2="5.37893" y2="13.3233" gradientUnits="userSpaceOnUse">
                                    <stop stop-color="#00A0FF"></stop>
                                    <stop offset="0.0066" stop-color="#00A1FF"></stop>
                                    <stop offset="0.2601" stop-color="#00BEFF"></stop>
                                    <stop offset="0.5122" stop-color="#00D2FF"></stop>
                                    <stop offset="0.7604" stop-color="#00DFFF"></stop>
                                    <stop offset="1" stop-color="#00E3FF"></stop>
                                </linearGradient>
                                <linearGradient id="paint1_linear_6690_28638" x1="33.082" y1="18.9985" x2="9.42285" y2="18.9985" gradientUnits="userSpaceOnUse">
                                    <stop stop-color="#FFE000"></stop>
                                    <stop offset="0.4087" stop-color="#FFBD00"></stop>
                                    <stop offset="0.7754" stop-color="#FFA500"></stop>
                                    <stop offset="1" stop-color="#FF9C00"></stop>
                                </linearGradient>
                                <linearGradient id="paint2_linear_6690_28638" x1="24.2753" y1="16.8185" x2="2.66389" y2="-5.42482" gradientUnits="userSpaceOnUse">
                                    <stop stop-color="#FF3A44"></stop>
                                    <stop offset="1" stop-color="#C31162"></stop>
                                </linearGradient>
                                <linearGradient id="paint3_linear_6690_28638" x1="7.13515" y1="37.8326" x2="16.7856" y2="27.9001" gradientUnits="userSpaceOnUse">
                                    <stop stop-color="#32A071"></stop>
                                    <stop offset="0.0685" stop-color="#2DA771"></stop>
                                    <stop offset="0.4762" stop-color="#15CF74"></stop>
                                    <stop offset="0.8009" stop-color="#06E775"></stop>
                                    <stop offset="1" stop-color="#00F076"></stop>
                                </linearGradient>
                            </defs>
                        </svg>