<svg viewBox="0 0 34 33" fill="none" xmlns="http://www.w3.org/2000/svg">
<path d="M30.8583 13.5195C31.2222 12.4228 31.3481 11.261 31.2275 10.1118C31.1068 8.9625 30.7425 7.85223 30.1588 6.8551C29.2935 5.34795 27.9722 4.1547 26.3854 3.44739C24.7986 2.74007 23.0283 2.55524 21.3297 2.91954C20.3648 1.84548 19.1343 1.0444 17.762 0.596753C16.3897 0.149103 14.9238 0.0706454 13.5116 0.369259C12.0994 0.667872 10.7906 1.33304 9.71657 2.29797C8.64258 3.26289 7.84125 4.49359 7.39305 5.86646C6.26146 6.09864 5.19243 6.56983 4.25741 7.24851C3.32239 7.9272 2.54291 8.79777 1.97106 9.80203C1.09631 11.3067 0.722448 13.0507 0.903525 14.7819C1.0846 16.5132 1.81123 18.142 2.97837 19.4328C2.61308 20.5289 2.48594 21.6905 2.60546 22.8398C2.72498 23.9891 3.08841 25.0996 3.67143 26.097C4.53787 27.6047 5.86035 28.7983 7.44826 29.5056C9.03618 30.2129 10.8075 30.3975 12.507 30.0327C13.2737 30.8966 14.2157 31.5869 15.2702 32.0574C16.3247 32.528 17.4673 32.7681 18.6219 32.7616C20.3629 32.7632 22.0593 32.2112 23.4664 31.1853C24.8734 30.1594 25.9183 28.7127 26.4501 27.0539C27.5815 26.8213 28.6504 26.35 29.5854 25.6713C30.5203 24.9926 31.2999 24.1223 31.8721 23.1182C32.7365 21.6158 33.1039 19.8783 32.9218 18.1543C32.7397 16.4303 32.0174 14.808 30.8583 13.5195ZM18.6219 30.6299C17.1961 30.6321 15.815 30.1321 14.7207 29.2174L14.9132 29.1083L21.3939 25.3652C21.5552 25.2705 21.6891 25.1355 21.7825 24.9734C21.8759 24.8113 21.9255 24.6277 21.9265 24.4406V15.298L24.6662 16.8839C24.6797 16.8907 24.6914 16.9007 24.7004 16.913C24.7094 16.9252 24.7153 16.9395 24.7177 16.9544V24.5306C24.7143 26.1472 24.0709 27.6966 22.9285 28.8397C21.7861 29.9828 20.2376 30.6265 18.6219 30.6299ZM5.51935 25.0313C4.80429 23.7959 4.54754 22.3476 4.79429 20.9415L4.98688 21.0571L11.4739 24.8002C11.6345 24.8944 11.8172 24.9441 12.0033 24.9441C12.1894 24.9441 12.3721 24.8944 12.5327 24.8002L20.4571 20.2288V23.3941C20.4564 23.4105 20.4519 23.4266 20.4441 23.441C20.4363 23.4555 20.4254 23.468 20.4121 23.4776L13.848 27.2656C12.4471 28.0731 10.7833 28.2914 9.22173 27.8725C7.6602 27.4535 6.32862 26.4317 5.51935 25.0313ZM3.81261 10.9064C4.53264 9.66302 5.66913 8.71463 7.02088 8.22916V15.9336C7.01845 16.1198 7.06598 16.3032 7.15851 16.4646C7.25105 16.6261 7.38521 16.7598 7.54699 16.8517L15.4329 21.4038L12.6931 22.9896C12.6783 22.9974 12.6617 23.0016 12.645 23.0016C12.6282 23.0016 12.6116 22.9974 12.5968 22.9896L6.04559 19.208C4.64735 18.3971 3.62728 17.0647 3.20875 15.5027C2.79023 13.9408 3.00737 12.2765 3.81261 10.8744V10.9064ZM26.3218 16.1391L18.4102 11.5421L21.1437 9.96244C21.1585 9.95456 21.175 9.95044 21.1918 9.95044C21.2086 9.95044 21.2251 9.95456 21.24 9.96244L27.7912 13.7505C28.7929 14.3288 29.6094 15.1803 30.1456 16.2056C30.6818 17.2309 30.9154 18.3876 30.8192 19.5408C30.723 20.694 30.3009 21.7959 29.6023 22.7181C28.9037 23.6402 27.9573 24.3445 26.8737 24.7486V17.0442C26.868 16.8583 26.8141 16.6772 26.7173 16.5185C26.6205 16.3598 26.4843 16.2291 26.3218 16.1391ZM29.0488 12.0365L28.8563 11.9209L22.3821 8.1457C22.2206 8.05087 22.0367 8.00088 21.8495 8.00088C21.6622 8.00088 21.4783 8.05087 21.3169 8.1457L13.399 12.7169V9.55178C13.3974 9.53569 13.4 9.51944 13.4068 9.50475C13.4136 9.49006 13.4242 9.47747 13.4376 9.46832L19.9888 5.68665C20.9929 5.10787 22.1409 4.82712 23.2985 4.87722C24.4562 4.92732 25.5757 5.30621 26.5261 5.96958C27.4765 6.63294 28.2184 7.55335 28.6652 8.62317C29.112 9.69298 29.2451 10.868 29.049 12.0107L29.0488 12.0365ZM11.9038 17.6477L9.16407 16.0683C9.15037 16.06 9.13865 16.0488 9.12974 16.0355C9.12083 16.0222 9.11496 16.0071 9.11253 15.9913V8.43462C9.11404 7.27536 9.44534 6.14048 10.0677 5.16267C10.69 4.18487 11.5777 3.40454 12.627 2.91294C13.6762 2.42133 14.8436 2.23876 15.9927 2.38658C17.1419 2.53439 18.2252 3.00647 19.116 3.74763L18.9234 3.85688L12.4429 7.59974C12.2816 7.6944 12.1477 7.8294 12.0543 7.99151C11.9609 8.15361 11.9113 8.33723 11.9103 8.52433L11.9038 17.6477ZM13.3924 14.4376L16.9214 12.4022L20.4571 14.4376V18.508L16.9343 20.5433L13.3989 18.508L13.3924 14.4376Z"/>
<path d="M30.4068 20.8587C31.2709 20.0907 31.9614 19.1475 32.4322 18.0919C32.903 17.0364 33.1432 15.8929 33.1368 14.7378C33.1418 13.0004 32.5948 11.307 31.5746 9.90195C30.5544 8.49686 29.1139 7.45259 27.4605 6.91972C27.1624 5.50759 26.4978 4.19928 25.5334 3.12618C24.569 2.05309 23.3388 1.25299 21.9663 0.806252C20.5938 0.359513 19.1274 0.281859 17.7143 0.581091C16.3013 0.880323 14.9913 1.5459 13.9159 2.51099C12.8197 2.14688 11.6581 2.02099 10.5086 2.14175C9.35917 2.2625 8.24837 2.62711 7.25047 3.21121C5.73978 4.07736 4.54306 5.40099 3.83332 6.99074C3.12358 8.58049 2.9376 10.354 3.30227 12.0548C2.43724 12.8216 1.74572 13.7641 1.27396 14.8191C0.802204 15.8741 0.56109 17.0174 0.566748 18.1724C0.562445 19.9108 1.11034 21.605 2.13148 23.0106C3.15261 24.4163 4.59425 25.4609 6.24863 25.9938C6.48017 27.1249 6.95048 28.1932 7.62815 29.1274C8.30582 30.0616 9.17526 30.8402 10.1784 31.4113C11.6853 32.2822 13.4308 32.6515 15.1628 32.4658C16.8948 32.2801 18.5238 31.549 19.8147 30.3781C20.911 30.7418 22.0726 30.8675 23.222 30.7467C24.3714 30.626 25.4822 30.2615 26.4802 29.6778C27.9809 28.8084 29.1687 27.4872 29.874 25.9032C30.5792 24.3193 30.7657 22.5535 30.4068 20.8587ZM11.2454 29.5651C10.0095 28.8549 9.06369 27.7321 8.57387 26.3934L8.79516 26.395L16.2812 26.3903C16.4682 26.3888 16.6518 26.3388 16.8138 26.2451C16.9758 26.1513 17.1107 26.0171 17.2052 25.8556L21.7814 17.9378L23.3603 20.6796C23.3686 20.6923 23.3737 20.7068 23.3754 20.7219C23.377 20.737 23.375 20.7523 23.3696 20.7665L19.5775 27.3276C18.7653 28.7259 17.4326 29.7464 15.8711 30.1657C14.3095 30.5851 12.6463 30.3691 11.2454 29.5651ZM2.70053 18.1724C2.69967 16.7453 3.20221 15.3629 4.11975 14.2683L4.22866 14.4647L7.97305 20.9463C8.06488 21.1081 8.19827 21.2424 8.35944 21.3354C8.52061 21.4283 8.70374 21.4766 8.88992 21.4751L18.0408 21.4742L16.4565 24.2154C16.4476 24.2292 16.4358 24.2409 16.4218 24.2495C16.4078 24.2581 16.3921 24.2635 16.3757 24.2652L8.79497 24.2672C7.17761 24.2668 5.62743 23.6248 4.48479 22.4821C3.34214 21.3394 2.70043 19.7894 2.70053 18.1724ZM8.2925 5.08744C9.53844 4.37024 10.9974 4.11654 12.411 4.37126L8.55464 11.0435C8.45936 11.2035 8.40873 11.3861 8.40804 11.5721C8.40736 11.7582 8.45663 11.941 8.55072 12.1014L13.1016 19.9823L9.93516 19.9872C9.91838 19.9866 9.902 19.9819 9.88746 19.9736C9.87292 19.9652 9.86066 19.9533 9.85177 19.9391L6.07104 13.3921C5.26606 11.9914 5.04955 10.3281 5.46892 8.76635C5.88829 7.20461 6.90936 5.87177 8.30854 5.0597L8.2925 5.08744ZM25.1669 20.8615L20.6162 12.9289L23.7741 12.9261C23.7909 12.9267 23.8073 12.9314 23.8218 12.9398C23.8364 12.9482 23.8486 12.96 23.8575 12.9742L27.635 19.5268C28.213 20.528 28.494 21.6733 28.4451 22.829C28.3962 23.9847 28.0196 25.1032 27.3591 26.0538C26.6985 27.0044 25.7815 27.7479 24.7149 28.1976C23.6482 28.6473 22.4761 28.7845 21.3354 28.5933L25.1918 21.921C25.2799 21.7572 25.3239 21.5734 25.3195 21.3877C25.3151 21.2019 25.2626 21.0207 25.1669 20.8615ZM29.5821 18.6706L29.4732 18.4743L25.756 11.9713C25.6636 11.8085 25.5294 11.6734 25.3672 11.5799C25.205 11.4864 25.0208 11.4378 24.8335 11.4393L15.6884 11.4434L17.2727 8.70234C17.2792 8.68756 17.2897 8.67483 17.3029 8.66549C17.3162 8.65616 17.3317 8.65056 17.3478 8.6493L24.9142 8.64636C26.0734 8.64662 27.2082 8.97686 28.1857 9.59847C29.1632 10.2201 29.943 11.1074 30.434 12.1565C30.925 13.2057 31.1069 14.3734 30.9583 15.523C30.8098 16.6726 30.3369 17.7567 29.5951 18.6484L29.5821 18.6706ZM11.9254 14.9667L10.3433 12.2306C10.3356 12.2166 10.331 12.201 10.33 12.1851C10.3289 12.1691 10.3314 12.1531 10.3372 12.1382L14.1196 5.5939C14.7012 4.5907 15.5561 3.77334 16.5845 3.23737C17.6129 2.70141 18.7723 2.469 19.927 2.56731C21.0817 2.66562 22.1841 3.09059 23.1053 3.79254C24.0265 4.49449 24.7284 5.4444 25.1289 6.53121L24.9074 6.52963L17.4217 6.53425C17.2346 6.53566 17.051 6.5857 16.889 6.67944C16.727 6.77319 16.5921 6.90742 16.4976 7.06894L11.9254 14.9667ZM14.8214 12.9302L18.8964 12.9302L20.9396 16.4588L18.9022 19.9839L14.8326 19.987L12.7896 16.4586L14.8214 12.9302Z"/>
</svg>
