<svg width="18" height="20" viewBox="0 0 18 20" fill="none" xmlns="http://www.w3.org/2000/svg">
<path d="M17.8017 11.9658L14.2818 10.43C13.4306 10.0596 12.7526 9.37946 12.3822 8.53035L10.8464 5.01048C10.7273 4.73755 10.3396 4.73755 10.2204 5.01048L8.6847 8.53035C8.3143 9.38162 7.63415 10.0596 6.78505 10.43L3.26085 11.9679C2.98792 12.0871 2.98792 12.4726 3.26085 12.5917L6.8457 14.1773C7.6948 14.552 8.37062 15.2344 8.73669 16.0878L10.2226 19.5405C10.3396 19.8156 10.7295 19.8156 10.8486 19.5405L12.3822 16.0271C12.7526 15.1759 13.4327 14.4979 14.2818 14.1275L17.8017 12.5917C18.0746 12.4726 18.0746 12.0849 17.8017 11.9658Z" />
<path d="M3.64403 9.67394L4.36317 8.02555C4.53646 7.627 4.85487 7.30858 5.25343 7.1353L6.90398 6.41616C7.03178 6.35984 7.03178 6.17789 6.90398 6.12374L5.25343 5.4046C4.85487 5.23131 4.53646 4.9129 4.36317 4.51434L3.64403 2.86379C3.58771 2.73599 3.40576 2.73599 3.35161 2.86379L2.63248 4.51434C2.45919 4.9129 2.14078 5.23131 1.74222 5.4046L0.0895012 6.1259C-0.0382973 6.18222 -0.0382973 6.36201 0.0895012 6.41832L1.77038 7.16129C2.16893 7.33674 2.48518 7.65732 2.6563 8.05588L3.35378 9.67394C3.4101 9.80173 3.59205 9.8039 3.6462 9.67394H3.64403Z" />
<path d="M6.80869 2.18802L7.70112 2.58225C7.91339 2.67539 8.08018 2.84651 8.17115 3.05662L8.54155 3.91655C8.57188 3.98587 8.66719 3.98587 8.69751 3.91655L9.07874 3.04146C9.17188 2.82918 9.34084 2.66023 9.55095 2.56925L10.426 2.18802C10.4932 2.1577 10.4932 2.06239 10.426 2.03206L9.55095 1.65083C9.33867 1.55769 9.16972 1.38874 9.07874 1.17863L8.69751 0.303535C8.66719 0.236387 8.57188 0.236387 8.54155 0.303535L8.16032 1.17863C8.06718 1.39091 7.89823 1.55986 7.68812 1.65083L6.81086 2.03423C6.74371 2.06456 6.74371 2.15986 6.81086 2.19019L6.80869 2.18802Z" />
</svg>
