<svg  viewBox="0 0 189 33" fill="none" xmlns="http://www.w3.org/2000/svg">
<path d="M47.2395 28.0376V5.06012H55.0021C56.797 5.06012 58.2702 5.36678 59.4219 5.98011C60.5736 6.58596 61.4261 7.41994 61.9795 8.48205C62.5329 9.54416 62.8096 10.7521 62.8096 12.1059C62.8096 13.4597 62.5329 14.6602 61.9795 15.7074C61.4261 16.7545 60.5773 17.5773 59.4331 18.1757C58.2889 18.7666 56.8269 19.062 55.047 19.062H48.7651V16.5488H54.9573C56.1837 16.5488 57.1709 16.3693 57.9187 16.0103C58.674 15.6513 59.22 15.1427 59.5565 14.4845C59.9005 13.8188 60.0725 13.0259 60.0725 12.1059C60.0725 11.1859 59.9005 10.3819 59.5565 9.69375C59.2125 9.00563 58.6628 8.47457 57.9075 8.10059C57.1522 7.71913 56.1538 7.5284 54.9124 7.5284H50.0215V28.0376H47.2395ZM58.0533 17.7157L63.707 28.0376H60.4764L54.9124 17.7157H58.0533Z"/>
<path d="M74.1254 28.3966C72.4652 28.3966 71.0331 28.0301 69.8291 27.2971C68.6325 26.5566 67.7089 25.5244 67.0583 24.2005C66.4152 22.8691 66.0936 21.3208 66.0936 19.5557C66.0936 17.7905 66.4152 16.2347 67.0583 14.8884C67.7089 13.5345 68.6138 12.4799 69.773 11.7245C70.9396 10.9616 72.3007 10.5801 73.8562 10.5801C74.7536 10.5801 75.6398 10.7297 76.5148 11.0289C77.3898 11.3281 78.1862 11.8142 78.9042 12.4874C79.6221 13.1531 80.1942 14.0357 80.6205 15.1352C81.0467 16.2347 81.2599 17.5885 81.2599 19.1966V20.3186H67.9782V18.0298H78.5676C78.5676 17.0575 78.3732 16.1898 77.9843 15.4269C77.6029 14.664 77.057 14.0619 76.3465 13.6206C75.6436 13.1793 74.8135 12.9586 73.8562 12.9586C72.8018 12.9586 71.8894 13.2204 71.1191 13.744C70.3563 14.2601 69.7693 14.9332 69.3579 15.7635C68.9466 16.5937 68.741 17.4838 68.741 18.4337V19.9596C68.741 21.261 68.9653 22.3643 69.414 23.2693C69.8702 24.1668 70.5021 24.8512 71.3098 25.3224C72.1175 25.7862 73.056 26.0181 74.1254 26.0181C74.8209 26.0181 75.4491 25.9208 76.01 25.7264C76.5784 25.5244 77.0682 25.2252 77.4795 24.8288C77.8908 24.4249 78.2087 23.9238 78.433 23.3254L80.9907 24.0434C80.7214 24.9111 80.269 25.674 79.6333 26.3322C78.9977 26.9829 78.2124 27.4915 77.2776 27.858C76.3428 28.2171 75.2921 28.3966 74.1254 28.3966Z"/>
<path d="M91.7933 28.3966C90.3574 28.3966 89.0898 28.0338 87.9905 27.3083C86.8912 26.5753 86.0311 25.5431 85.4104 24.2117C84.7897 22.8729 84.4794 21.2909 84.4794 19.4659C84.4794 17.6558 84.7897 16.0851 85.4104 14.7537C86.0311 13.4224 86.8949 12.3939 88.0017 11.6684C89.1085 10.9429 90.3873 10.5801 91.8381 10.5801C92.9599 10.5801 93.8461 10.7671 94.4967 11.1411C95.1548 11.5076 95.6559 11.9264 95.9999 12.3976C96.3514 12.8614 96.6244 13.2428 96.8188 13.542H97.0431V5.06012H99.6905V28.0376H97.1329V25.3898H96.8188C96.6244 25.7039 96.3477 26.1003 95.9887 26.579C95.6297 27.0502 95.1174 27.4728 94.4519 27.8468C93.7863 28.2133 92.9001 28.3966 91.7933 28.3966ZM92.1522 26.0181C93.2142 26.0181 94.1116 25.7413 94.8445 25.1878C95.5774 24.6268 96.1345 23.8527 96.5159 22.8654C96.8973 21.8706 97.088 20.7225 97.088 19.421C97.088 18.1345 96.9011 17.0088 96.5271 16.044C96.1532 15.0716 95.5998 14.3162 94.8669 13.7776C94.134 13.2316 93.2291 12.9586 92.1522 12.9586C91.0305 12.9586 90.0957 13.2466 89.3478 13.8225C88.6075 14.391 88.0503 15.1651 87.6764 16.1449C87.3099 17.1173 87.1267 18.2093 87.1267 19.421C87.1267 20.6477 87.3137 21.7621 87.6876 22.7644C88.069 23.7592 88.6299 24.552 89.3703 25.1429C90.1181 25.7263 91.0454 26.0181 92.1522 26.0181Z"/>
<path d="M112.131 28.3966C110.471 28.3966 109.039 28.0301 107.835 27.2971C106.638 26.5566 105.714 25.5244 105.064 24.2005C104.421 22.8691 104.099 21.3208 104.099 19.5557C104.099 17.7905 104.421 16.2347 105.064 14.8884C105.714 13.5345 106.619 12.4799 107.778 11.7245C108.945 10.9616 110.306 10.5801 111.862 10.5801C112.759 10.5801 113.645 10.7297 114.52 11.0289C115.395 11.3281 116.192 11.8142 116.91 12.4874C117.628 13.1531 118.2 14.0357 118.626 15.1352C119.052 16.2347 119.265 17.5885 119.265 19.1966V20.3186H105.984V18.0298H116.573C116.573 17.0575 116.379 16.1898 115.99 15.4269C115.608 14.664 115.062 14.0619 114.352 13.6206C113.649 13.1793 112.819 12.9586 111.862 12.9586C110.807 12.9586 109.895 13.2204 109.125 13.744C108.362 14.2601 107.775 14.9332 107.363 15.7635C106.952 16.5937 106.746 17.4838 106.746 18.4337V19.9596C106.746 21.261 106.971 22.3643 107.419 23.2693C107.876 24.1668 108.508 24.8512 109.315 25.3224C110.123 25.7862 111.061 26.0181 112.131 26.0181C112.826 26.0181 113.455 25.9208 114.015 25.7264C114.584 25.5244 115.074 25.2252 115.485 24.8288C115.896 24.4249 116.214 23.9238 116.438 23.3254L118.996 24.0434C118.727 24.9111 118.274 25.674 117.639 26.3322C117.003 26.9829 116.218 27.4915 115.283 27.858C114.348 28.2171 113.298 28.3966 112.131 28.3966Z"/>
<path d="M125.94 17.6708V28.0376H123.292V10.8045H125.85V13.4971H126.074C126.478 12.622 127.092 11.9189 127.914 11.3879C128.737 10.8494 129.799 10.5801 131.1 10.5801C132.267 10.5801 133.287 10.8194 134.162 11.2981C135.037 11.7694 135.718 12.4874 136.204 13.4523C136.69 14.4097 136.933 15.6214 136.933 17.0874V28.0376H134.286V17.2669C134.286 15.9131 133.934 14.8584 133.231 14.103C132.528 13.3401 131.564 12.9586 130.337 12.9586C129.492 12.9586 128.737 13.1419 128.071 13.5084C127.413 13.8749 126.893 14.4097 126.512 15.1127C126.131 15.8158 125.94 16.6685 125.94 17.6708Z"/>
<path d="M149.264 10.8045V13.0484H140.335V10.8045H149.264ZM142.937 6.67572H145.585V23.101C145.585 23.849 145.693 24.4099 145.91 24.7839C146.134 25.1504 146.419 25.3972 146.763 25.5244C147.114 25.6441 147.484 25.7039 147.873 25.7039C148.165 25.7039 148.404 25.689 148.591 25.659C148.778 25.6216 148.928 25.5917 149.04 25.5693L149.578 27.9478C149.399 28.0151 149.148 28.0824 148.827 28.1498C148.505 28.2245 148.098 28.2619 147.604 28.2619C146.856 28.2619 146.123 28.1011 145.405 27.7795C144.695 27.4579 144.104 26.968 143.633 26.3098C143.169 25.6516 142.937 24.8213 142.937 23.819V6.67572Z"/>
<path d="M155.176 28.2171C154.622 28.2171 154.148 28.0189 153.751 27.6224C153.355 27.226 153.157 26.7511 153.157 26.1976C153.157 25.6441 153.355 25.1691 153.751 24.7727C154.148 24.3763 154.622 24.1781 155.176 24.1781C155.729 24.1781 156.204 24.3763 156.601 24.7727C156.997 25.1691 157.195 25.6441 157.195 26.1976C157.195 26.5641 157.102 26.9007 156.915 27.2073C156.735 27.514 156.492 27.7608 156.185 27.9478C155.886 28.1273 155.55 28.2171 155.176 28.2171Z"/>
<path d="M165.087 5.06012V28.0376H162.305V5.06012H165.087Z"/>
<path d="M171.607 28.0376H168.69L177.126 5.06012H179.998L188.433 28.0376H185.517L178.652 8.69522H178.472L171.607 28.0376ZM172.684 19.062H184.44V21.5303H172.684V19.062Z"/>
<path d="M30.8583 13.5195C31.2222 12.4228 31.3481 11.261 31.2275 10.1118C31.1068 8.9625 30.7425 7.85223 30.1588 6.8551C29.2935 5.34795 27.9722 4.1547 26.3854 3.44739C24.7986 2.74007 23.0283 2.55524 21.3297 2.91954C20.3648 1.84548 19.1343 1.0444 17.762 0.596753C16.3897 0.149103 14.9238 0.0706454 13.5116 0.369259C12.0994 0.667872 10.7906 1.33304 9.71657 2.29797C8.64258 3.26289 7.84125 4.49359 7.39305 5.86646C6.26146 6.09864 5.19243 6.56983 4.25741 7.24851C3.32239 7.9272 2.54291 8.79777 1.97106 9.80203C1.09631 11.3067 0.722448 13.0507 0.903525 14.7819C1.0846 16.5132 1.81123 18.142 2.97837 19.4328C2.61308 20.5289 2.48594 21.6905 2.60546 22.8398C2.72498 23.9891 3.08841 25.0996 3.67143 26.097C4.53787 27.6047 5.86035 28.7983 7.44826 29.5056C9.03618 30.2129 10.8075 30.3975 12.507 30.0327C13.2737 30.8966 14.2157 31.5869 15.2702 32.0574C16.3247 32.528 17.4673 32.7681 18.6219 32.7616C20.3629 32.7632 22.0593 32.2112 23.4664 31.1853C24.8734 30.1594 25.9183 28.7127 26.4501 27.0539C27.5815 26.8213 28.6504 26.35 29.5854 25.6713C30.5203 24.9926 31.2999 24.1223 31.8721 23.1182C32.7365 21.6158 33.1039 19.8783 32.9218 18.1543C32.7397 16.4303 32.0174 14.808 30.8583 13.5195ZM18.6219 30.6299C17.1961 30.6321 15.815 30.1321 14.7207 29.2174L14.9132 29.1083L21.3939 25.3652C21.5552 25.2705 21.6891 25.1355 21.7825 24.9734C21.8759 24.8113 21.9255 24.6277 21.9265 24.4406V15.298L24.6662 16.8839C24.6797 16.8907 24.6914 16.9007 24.7004 16.913C24.7094 16.9252 24.7153 16.9395 24.7177 16.9544V24.5306C24.7143 26.1472 24.0709 27.6966 22.9285 28.8397C21.7861 29.9828 20.2376 30.6265 18.6219 30.6299ZM5.51935 25.0313C4.80429 23.7959 4.54754 22.3476 4.79429 20.9415L4.98688 21.0571L11.4739 24.8002C11.6345 24.8944 11.8172 24.9441 12.0033 24.9441C12.1894 24.9441 12.3721 24.8944 12.5327 24.8002L20.4571 20.2288V23.3941C20.4564 23.4105 20.4519 23.4266 20.4441 23.441C20.4363 23.4555 20.4254 23.468 20.4121 23.4776L13.848 27.2656C12.4471 28.0731 10.7833 28.2914 9.22173 27.8725C7.6602 27.4535 6.32862 26.4317 5.51935 25.0313ZM3.81261 10.9064C4.53264 9.66302 5.66913 8.71463 7.02088 8.22916V15.9336C7.01845 16.1198 7.06598 16.3032 7.15851 16.4646C7.25105 16.6261 7.38521 16.7598 7.54699 16.8517L15.4329 21.4038L12.6931 22.9896C12.6783 22.9974 12.6617 23.0016 12.645 23.0016C12.6282 23.0016 12.6116 22.9974 12.5968 22.9896L6.04559 19.208C4.64735 18.3971 3.62728 17.0647 3.20875 15.5027C2.79023 13.9408 3.00737 12.2765 3.81261 10.8744V10.9064ZM26.3218 16.1391L18.4102 11.5421L21.1437 9.96244C21.1585 9.95456 21.175 9.95044 21.1918 9.95044C21.2086 9.95044 21.2251 9.95456 21.24 9.96244L27.7912 13.7505C28.7929 14.3288 29.6094 15.1803 30.1456 16.2056C30.6818 17.2309 30.9154 18.3876 30.8192 19.5408C30.723 20.694 30.3009 21.7959 29.6023 22.7181C28.9037 23.6402 27.9573 24.3445 26.8737 24.7486V17.0442C26.868 16.8583 26.8141 16.6772 26.7173 16.5185C26.6205 16.3598 26.4843 16.2291 26.3218 16.1391ZM29.0488 12.0365L28.8563 11.9209L22.3821 8.1457C22.2206 8.05087 22.0367 8.00088 21.8495 8.00088C21.6622 8.00088 21.4783 8.05087 21.3169 8.1457L13.399 12.7169V9.55178C13.3974 9.53569 13.4 9.51944 13.4068 9.50475C13.4136 9.49006 13.4242 9.47747 13.4376 9.46832L19.9888 5.68665C20.9929 5.10787 22.1409 4.82712 23.2985 4.87722C24.4562 4.92732 25.5757 5.30621 26.5261 5.96958C27.4765 6.63294 28.2184 7.55335 28.6652 8.62317C29.112 9.69298 29.2451 10.868 29.049 12.0107L29.0488 12.0365ZM11.9038 17.6477L9.16407 16.0683C9.15037 16.06 9.13865 16.0488 9.12974 16.0355C9.12083 16.0222 9.11496 16.0071 9.11253 15.9913V8.43462C9.11404 7.27536 9.44534 6.14048 10.0677 5.16267C10.69 4.18487 11.5777 3.40454 12.627 2.91294C13.6762 2.42133 14.8436 2.23876 15.9927 2.38658C17.1419 2.53439 18.2252 3.00647 19.116 3.74763L18.9234 3.85688L12.4429 7.59974C12.2816 7.6944 12.1477 7.8294 12.0543 7.99151C11.9609 8.15361 11.9113 8.33723 11.9103 8.52433L11.9038 17.6477ZM13.3924 14.4376L16.9214 12.4022L20.4571 14.4376V18.508L16.9343 20.5433L13.3989 18.508L13.3924 14.4376Z"/>
<path d="M30.4068 20.8587C31.2709 20.0907 31.9614 19.1475 32.4322 18.0919C32.903 17.0364 33.1432 15.8929 33.1368 14.7378C33.1418 13.0004 32.5948 11.307 31.5746 9.90195C30.5544 8.49686 29.1139 7.45259 27.4605 6.91972C27.1624 5.50759 26.4978 4.19928 25.5334 3.12618C24.569 2.05309 23.3388 1.25299 21.9663 0.806252C20.5938 0.359513 19.1274 0.281859 17.7143 0.581091C16.3013 0.880323 14.9913 1.5459 13.9159 2.51099C12.8197 2.14688 11.6581 2.02099 10.5086 2.14175C9.35917 2.2625 8.24837 2.62711 7.25047 3.21121C5.73978 4.07736 4.54306 5.40099 3.83332 6.99074C3.12358 8.58049 2.9376 10.354 3.30227 12.0548C2.43724 12.8216 1.74572 13.7641 1.27396 14.8191C0.802204 15.8741 0.56109 17.0174 0.566748 18.1724C0.562445 19.9108 1.11034 21.605 2.13148 23.0106C3.15261 24.4163 4.59425 25.4609 6.24863 25.9938C6.48017 27.1249 6.95048 28.1932 7.62815 29.1274C8.30582 30.0616 9.17526 30.8402 10.1784 31.4113C11.6853 32.2822 13.4308 32.6515 15.1628 32.4658C16.8948 32.2801 18.5238 31.549 19.8147 30.3781C20.911 30.7418 22.0726 30.8675 23.222 30.7467C24.3714 30.626 25.4822 30.2615 26.4802 29.6778C27.9809 28.8084 29.1687 27.4872 29.874 25.9032C30.5792 24.3193 30.7657 22.5535 30.4068 20.8587ZM11.2454 29.5651C10.0095 28.8549 9.06369 27.7321 8.57387 26.3934L8.79516 26.395L16.2812 26.3903C16.4682 26.3888 16.6518 26.3388 16.8138 26.2451C16.9758 26.1513 17.1107 26.0171 17.2052 25.8556L21.7814 17.9378L23.3603 20.6796C23.3686 20.6923 23.3737 20.7068 23.3754 20.7219C23.377 20.737 23.375 20.7523 23.3696 20.7665L19.5775 27.3276C18.7653 28.7259 17.4326 29.7464 15.8711 30.1657C14.3095 30.5851 12.6463 30.3691 11.2454 29.5651ZM2.70053 18.1724C2.69967 16.7453 3.20221 15.3629 4.11975 14.2683L4.22866 14.4647L7.97305 20.9463C8.06488 21.1081 8.19827 21.2424 8.35944 21.3354C8.52061 21.4283 8.70374 21.4766 8.88992 21.4751L18.0408 21.4742L16.4565 24.2154C16.4476 24.2292 16.4358 24.2409 16.4218 24.2495C16.4078 24.2581 16.3921 24.2635 16.3757 24.2652L8.79497 24.2672C7.17761 24.2668 5.62743 23.6248 4.48479 22.4821C3.34214 21.3394 2.70043 19.7894 2.70053 18.1724ZM8.2925 5.08744C9.53844 4.37024 10.9974 4.11654 12.411 4.37126L8.55464 11.0435C8.45936 11.2035 8.40873 11.3861 8.40804 11.5721C8.40736 11.7582 8.45663 11.941 8.55072 12.1014L13.1016 19.9823L9.93516 19.9872C9.91838 19.9866 9.902 19.9819 9.88746 19.9736C9.87292 19.9652 9.86066 19.9533 9.85177 19.9391L6.07104 13.3921C5.26606 11.9914 5.04955 10.3281 5.46892 8.76635C5.88829 7.20461 6.90936 5.87177 8.30854 5.0597L8.2925 5.08744ZM25.1669 20.8615L20.6162 12.9289L23.7741 12.9261C23.7909 12.9267 23.8073 12.9314 23.8218 12.9398C23.8364 12.9482 23.8486 12.96 23.8575 12.9742L27.635 19.5268C28.213 20.528 28.494 21.6733 28.4451 22.829C28.3962 23.9847 28.0196 25.1032 27.3591 26.0538C26.6985 27.0044 25.7815 27.7479 24.7149 28.1976C23.6482 28.6473 22.4761 28.7845 21.3354 28.5933L25.1918 21.921C25.2799 21.7572 25.3239 21.5734 25.3195 21.3877C25.3151 21.2019 25.2626 21.0207 25.1669 20.8615ZM29.5821 18.6706L29.4732 18.4743L25.756 11.9713C25.6636 11.8085 25.5294 11.6734 25.3672 11.5799C25.205 11.4864 25.0208 11.4378 24.8335 11.4393L15.6884 11.4434L17.2727 8.70234C17.2792 8.68756 17.2897 8.67483 17.3029 8.66549C17.3162 8.65616 17.3317 8.65056 17.3478 8.6493L24.9142 8.64636C26.0734 8.64662 27.2082 8.97686 28.1857 9.59847C29.1632 10.2201 29.943 11.1074 30.434 12.1565C30.925 13.2057 31.1069 14.3734 30.9583 15.523C30.8098 16.6726 30.3369 17.7567 29.5951 18.6484L29.5821 18.6706ZM11.9254 14.9667L10.3433 12.2306C10.3356 12.2166 10.331 12.201 10.33 12.1851C10.3289 12.1691 10.3314 12.1531 10.3372 12.1382L14.1196 5.5939C14.7012 4.5907 15.5561 3.77334 16.5845 3.23737C17.6129 2.70141 18.7723 2.469 19.927 2.56731C21.0817 2.66562 22.1841 3.09059 23.1053 3.79254C24.0265 4.49449 24.7284 5.4444 25.1289 6.53121L24.9074 6.52963L17.4217 6.53425C17.2346 6.53566 17.051 6.5857 16.889 6.67944C16.727 6.77319 16.5921 6.90742 16.4976 7.06894L11.9254 14.9667ZM14.8214 12.9302L18.8964 12.9302L20.9396 16.4588L18.9022 19.9839L14.8326 19.987L12.7896 16.4586L14.8214 12.9302Z" />
</svg>
