<svg viewBox="0 0 15 12" fill="none" xmlns="http://www.w3.org/2000/svg">
<path d="M5.75018 6.55252C4.95719 7.34664 4.19869 8.10738 3.43944 8.86851C2.78955 9.5184 2.13966 10.1673 1.48977 10.8152C1.27718 11.0263 1.02072 11.0915 0.731646 11.0064C0.44257 10.9213 0.270474 10.7162 0.206734 10.4264C0.145245 10.1444 0.252852 9.91308 0.450068 9.71399C1.35142 8.81314 2.25202 7.91204 3.15186 7.01069C3.819 6.3438 4.48664 5.67729 5.15478 5.01115C5.52109 4.64746 5.94514 4.64559 6.30996 5.00553C6.81687 5.50545 7.32041 6.00911 7.82058 6.51653C7.87719 6.57352 7.91281 6.65113 7.95293 6.71112L12.1657 2.49458C12.1057 2.49083 12.048 2.48445 11.9899 2.48408C11.5025 2.48408 11.015 2.48895 10.5276 2.48108C10.2056 2.47621 9.96297 2.31986 9.83061 2.02703C9.70426 1.74733 9.74625 1.47587 9.9431 1.23741C10.0137 1.14903 10.1037 1.07805 10.2061 1.02995C10.3084 0.981843 10.4205 0.957898 10.5336 0.95996C11.7004 0.957336 12.8702 0.955086 14.0385 0.961085C14.4798 0.963335 14.8064 1.29853 14.8079 1.73908C14.8117 2.90138 14.8117 4.06369 14.8079 5.22599C14.8079 5.66767 14.4618 6.01336 14.0427 6.00961C13.6235 6.00586 13.3003 5.67592 13.2928 5.23312C13.2857 4.75845 13.2909 4.2834 13.2909 3.80836V3.61151L13.2227 3.56727C13.1802 3.63409 13.1329 3.69763 13.0809 3.75736C11.5892 5.25186 10.0963 6.74524 8.60232 8.23749C8.21351 8.62555 7.79321 8.6263 7.4059 8.24086C6.89723 7.73445 6.38944 7.22641 5.88253 6.71674C5.83904 6.67287 5.80417 6.61888 5.75018 6.55252Z" />
</svg>
