<svg viewBox="0 0 8 10" fill="none" xmlns="http://www.w3.org/2000/svg">
<path d="M1.9376 9.53753H1.1126C0.656785 9.53753 0.287598 9.16834 0.287598 8.71252V1.28752C0.287598 0.831712 0.656785 0.462524 1.1126 0.462524H1.9376C2.39341 0.462524 2.7626 0.831712 2.7626 1.28752V8.71252C2.7626 9.16834 2.39341 9.53753 1.9376 9.53753ZM6.8876 9.53753H6.0626C5.60679 9.53753 5.2376 9.16834 5.2376 8.71252V1.28752C5.2376 0.831712 5.60679 0.462524 6.0626 0.462524H6.8876C7.34341 0.462524 7.7126 0.831712 7.7126 1.28752V8.71252C7.7126 9.16834 7.34341 9.53753 6.8876 9.53753Z" fill-opacity="0.8"/>
</svg>
