<svg width="33" height="33" viewBox="0 0 33 33" fill="none" xmlns="http://www.w3.org/2000/svg">
<path d="M30.2916 13.3281C30.6556 12.2314 30.7814 11.0696 30.6608 9.92036C30.5402 8.7711 30.1759 7.66082 29.5922 6.6637C28.7268 5.15655 27.4055 3.9633 25.8187 3.25598C24.2319 2.54867 22.4616 2.36383 20.7631 2.72813C19.7981 1.65408 18.5677 0.852996 17.1953 0.405346C15.823 -0.0423029 14.3572 -0.120761 12.9449 0.177852C11.5327 0.476466 10.2239 1.14164 9.14992 2.10656C8.07593 3.07148 7.2746 4.30218 6.8264 5.67506C5.69481 5.90724 4.62578 6.37842 3.69076 7.05711C2.75574 7.7358 1.97626 8.60636 1.40441 9.61062C0.529661 11.1153 0.155798 12.8593 0.336874 14.5905C0.51795 16.3218 1.24458 17.9505 2.41172 19.2414C2.04642 20.3375 1.91929 21.4991 2.03881 22.6484C2.15833 23.7977 2.52176 24.9082 3.10478 25.9056C3.97122 27.4133 5.29369 28.6069 6.88161 29.3142C8.46953 30.0215 10.2409 30.2061 11.9404 29.8413C12.707 30.7052 13.649 31.3955 14.7035 31.866C15.758 32.3366 16.9007 32.5767 18.0553 32.5702C19.7962 32.5718 21.4927 32.0198 22.8997 30.9939C24.3068 29.968 25.3516 28.5213 25.8834 26.8625C27.0149 26.6299 28.0838 26.1586 29.0187 25.4799C29.9537 24.8012 30.7333 23.9308 31.3054 22.9268C32.1698 21.4244 32.5373 19.6869 32.3552 17.9629C32.1731 16.2389 31.4508 14.6165 30.2916 13.3281ZM18.0553 30.4385C16.6295 30.4407 15.2483 29.9407 14.1541 29.026L14.3465 28.9169L20.8272 25.1738C20.9885 25.0791 21.1224 24.9441 21.2158 24.782C21.3092 24.6199 21.3588 24.4363 21.3598 24.2492V15.1066L24.0995 16.6925C24.1131 16.6993 24.1248 16.7093 24.1338 16.7216C24.1427 16.7338 24.1486 16.748 24.1511 16.763V24.3391C24.1476 25.9557 23.5043 27.5052 22.3618 28.6483C21.2194 29.7914 19.6709 30.4351 18.0553 30.4385ZM4.9527 24.8399C4.23764 23.6044 3.98089 22.1562 4.22764 20.75L4.42023 20.8657L10.9073 24.6088C11.0678 24.703 11.2505 24.7527 11.4367 24.7527C11.6228 24.7527 11.8055 24.703 11.966 24.6088L19.8905 20.0374V23.2027C19.8897 23.2191 19.8853 23.2352 19.8775 23.2496C19.8697 23.2641 19.8587 23.2766 19.8454 23.2862L13.2813 27.0742C11.8805 27.8817 10.2166 28.1 8.65508 27.681C7.09355 27.2621 5.76197 26.2403 4.9527 24.8399ZM3.24596 10.715C3.96599 9.47161 5.10248 8.52322 6.45423 8.03775V15.7422C6.45179 15.9284 6.49933 16.1117 6.59186 16.2732C6.6844 16.4347 6.81856 16.5684 6.98033 16.6603L14.8663 21.2124L12.1265 22.7982C12.1116 22.806 12.0951 22.8102 12.0783 22.8102C12.0615 22.8102 12.045 22.806 12.0302 22.7982L5.47894 19.0166C4.0807 18.2057 3.06063 16.8733 2.6421 15.3113C2.22358 13.7494 2.44072 12.0851 3.24596 10.683V10.715ZM25.7551 15.9477L17.8436 11.3507L20.577 9.77103C20.5918 9.76315 20.6084 9.75904 20.6252 9.75904C20.6419 9.75904 20.6585 9.76315 20.6733 9.77103L27.2245 13.5591C28.2262 14.1374 29.0428 14.9889 29.579 16.0142C30.1151 17.0395 30.3488 18.1962 30.2526 19.3494C30.1564 20.5025 29.7343 21.6045 29.0357 22.5267C28.337 23.4488 27.3906 24.1531 26.307 24.5572V16.8527C26.3013 16.6669 26.2474 16.4858 26.1507 16.3271C26.0539 16.1684 25.9177 16.0377 25.7551 15.9477ZM28.4822 11.8451L28.2896 11.7295L21.8154 7.95429C21.6539 7.85946 21.4701 7.80947 21.2828 7.80947C21.0956 7.80947 20.9117 7.85946 20.7502 7.95429L12.8324 12.5255V9.36038C12.8307 9.34428 12.8334 9.32803 12.8402 9.31334C12.847 9.29865 12.8576 9.28607 12.8709 9.27691L19.4221 5.49524C20.4262 4.91646 21.5742 4.63571 22.7319 4.68581C23.8896 4.73592 25.0091 5.11481 25.9594 5.77817C26.9098 6.44153 27.6518 7.36195 28.0985 8.43176C28.5453 9.50157 28.6784 10.6766 28.4823 11.8193L28.4822 11.8451ZM11.3371 17.4562L8.59742 15.8769C8.58372 15.8686 8.57199 15.8574 8.56309 15.8441C8.55418 15.8308 8.54831 15.8157 8.54588 15.7999V8.24322C8.54739 7.08395 8.87869 5.94907 9.50104 4.97127C10.1234 3.99346 11.0111 3.21314 12.0603 2.72153C13.1096 2.22993 14.277 2.04736 15.4261 2.19517C16.5752 2.34298 17.6585 2.81507 18.5494 3.55623L18.3568 3.66547L11.8762 7.40833C11.7149 7.50299 11.581 7.638 11.4876 7.8001C11.3943 7.9622 11.3446 8.14582 11.3436 8.33292L11.3371 17.4562ZM12.8258 14.2462L16.3548 12.2108L19.8905 14.2462V18.3166L16.3677 20.3519L12.8323 18.3166L12.8258 14.2462Z" fill="white"/>
<path d="M29.8401 20.6673C30.7043 19.8993 31.3948 18.956 31.8656 17.9005C32.3364 16.845 32.5766 15.7015 32.5702 14.5464C32.5752 12.809 32.0281 11.1156 31.008 9.71054C29.9878 8.30545 28.5472 7.26119 26.8939 6.72832C26.5958 5.31619 25.9312 4.00787 24.9668 2.93478C24.0024 1.86168 22.7722 1.06158 21.3997 0.614846C20.0272 0.168106 18.5608 0.0904531 17.1477 0.389685C15.7346 0.688917 14.4246 1.3545 13.3493 2.31958C12.2531 1.95547 11.0915 1.82959 9.94199 1.95034C8.79252 2.0711 7.68172 2.43571 6.68382 3.01981C5.17313 3.88596 3.97641 5.20959 3.26667 6.79933C2.55693 8.38908 2.37095 10.1626 2.73562 11.8634C1.87059 12.6302 1.17907 13.5727 0.707311 14.6277C0.235554 15.6827 -0.00556076 16.826 9.73221e-05 17.981C-0.00420513 19.7194 0.543692 21.4136 1.56483 22.8192C2.58596 24.2249 4.0276 25.2695 5.68198 25.8024C5.91352 26.9335 6.38383 28.0018 7.0615 28.936C7.73917 29.8702 8.60861 30.6488 9.61175 31.2198C11.1187 32.0908 12.8641 32.4601 14.5962 32.2744C16.3282 32.0887 17.9572 31.3576 19.248 30.1867C20.3443 30.5504 21.5059 30.6761 22.6553 30.5553C23.8047 30.4345 24.9155 30.0701 25.9136 29.4864C27.4142 28.617 28.6021 27.2958 29.3073 25.7118C30.0126 24.1279 30.1991 22.3621 29.8401 20.6673ZM10.6788 29.3737C9.44283 28.6635 8.49704 27.5407 8.00722 26.202L8.22851 26.2036L15.7145 26.1988C15.9016 26.1974 16.0851 26.1474 16.2472 26.0537C16.4092 25.9599 16.5441 25.8257 16.6386 25.6641L21.2148 17.7464L22.7936 20.4882C22.8019 20.5009 22.8071 20.5154 22.8087 20.5305C22.8103 20.5456 22.8083 20.5609 22.8029 20.5751L19.0108 27.1362C18.1987 28.5345 16.866 29.555 15.3044 29.9743C13.7429 30.3937 12.0796 30.1777 10.6788 29.3737ZM2.13388 17.981C2.13302 16.5539 2.63556 15.1715 3.5531 14.0769L3.66201 14.2732L7.4064 20.7549C7.49823 20.9167 7.63162 21.051 7.79279 21.144C7.95396 21.2369 8.13709 21.2852 8.32327 21.2837L17.4742 21.2828L15.8898 24.024C15.881 24.0378 15.8691 24.0495 15.8551 24.0581C15.8411 24.0667 15.8254 24.0721 15.8091 24.0738L8.22832 24.0758C6.61096 24.0754 5.06078 23.4334 3.91814 22.2907C2.77549 21.148 2.13378 19.598 2.13388 17.981ZM7.72585 4.89603C8.97179 4.17883 10.4307 3.92514 11.8444 4.17986L7.98799 10.8521C7.89271 11.0121 7.84208 11.1947 7.84139 11.3807C7.84071 11.5668 7.88998 11.7496 7.98407 11.91L12.535 19.7909L9.36851 19.7958C9.35172 19.7952 9.33535 19.7905 9.32081 19.7822C9.30627 19.7738 9.29401 19.7619 9.28512 19.7477L5.50439 13.2007C4.69941 11.8 4.4829 10.1367 4.90227 8.57494C5.32164 7.01321 6.34271 5.68036 7.74188 4.8683L7.72585 4.89603ZM24.6002 20.6701L20.0496 12.7375L23.2075 12.7347C23.2243 12.7353 23.2406 12.74 23.2552 12.7484C23.2697 12.7568 23.282 12.7686 23.2909 12.7828L27.0683 19.3354C27.6463 20.3366 27.9273 21.4819 27.8785 22.6376C27.8296 23.7933 27.4529 24.9118 26.7924 25.8624C26.1319 26.813 25.2148 27.5565 24.1482 28.0062C23.0816 28.4559 21.9095 28.5931 20.7687 28.4019L24.6251 21.7296C24.7132 21.5658 24.7572 21.382 24.7529 21.1963C24.7485 21.0105 24.6959 20.8293 24.6002 20.6701ZM29.0154 18.4792L28.9065 18.2829L25.1893 11.7799C25.0969 11.6171 24.9627 11.482 24.8006 11.3885C24.6384 11.2949 24.4541 11.2464 24.2668 11.2479L15.1217 11.252L16.706 8.51093C16.7126 8.49615 16.7231 8.48342 16.7363 8.47409C16.7495 8.46475 16.765 8.45916 16.7811 8.45789L24.3475 8.45495C25.5068 8.45521 26.6415 8.78546 27.619 9.40707C28.5965 10.0287 29.3764 10.9159 29.8674 11.9651C30.3584 13.0143 30.5402 14.182 30.3917 15.3316C30.2431 16.4812 29.7703 17.5653 29.0285 18.457L29.0154 18.4792ZM11.3587 14.7753L9.77666 12.0392C9.76892 12.0252 9.76436 12.0096 9.7633 11.9937C9.76225 11.9777 9.76472 11.9617 9.77054 11.9468L13.553 5.40249C14.1345 4.39929 14.9895 3.58193 16.0179 3.04597C17.0463 2.51 18.2056 2.27759 19.3604 2.3759C20.5151 2.47422 21.6175 2.89919 22.5387 3.60114C23.4598 4.30308 24.1617 5.25299 24.5622 6.33981L24.3408 6.33822L16.855 6.34284C16.6679 6.34425 16.4844 6.39429 16.3224 6.48804C16.1604 6.58178 16.0255 6.71601 15.931 6.87754L11.3587 14.7753ZM14.2547 12.7388L18.3297 12.7388L20.3729 16.2674L18.3355 19.7925L14.266 19.7956L12.2229 16.2672L14.2547 12.7388Z" fill="white"/>
</svg>
