<svg width="157" height="44" viewBox="0 0 157 44" fill="none" xmlns="http://www.w3.org/2000/svg">
<path d="M24.24 21.64L12.12 12.78V30.5L24.24 21.64ZM48.47 38.18C48.47 40.98 46.17 43.27 43.35 43.27H5.12C2.31 43.27 0 40.98 0 38.17V5.1C0 2.3 2.3 0 5.12 0H43.35C46.17 0 48.47 2.29 48.47 5.08L24.24 21.63L48.47 38.17V38.18Z" fill="white"/>
<path d="M116.2 9.97005H111.57V5.09004H116.2V9.97005ZM57.5299 11.69V38.17H52.8999V11.69H57.5299ZM57.5299 9.97005H52.8999V5.09004H57.5299V9.97005ZM60.1399 10.85C60.2499 9.08004 60.8599 7.61004 61.9699 6.44004C63.0699 5.26004 64.7299 4.67004 66.9399 4.67004C67.9599 4.67004 68.8899 4.78004 69.7399 5.01004C70.5899 5.23004 71.3099 5.62004 71.9099 6.17004C72.5099 6.72004 72.9699 7.44004 73.2899 8.33004C73.6199 9.23004 73.7799 10.35 73.7799 11.69V15.94H68.6399V10.98C68.6399 9.52004 68.0899 8.79004 66.9799 8.79004C65.8699 8.79004 65.3199 9.52004 65.3199 10.98V13.5C65.3199 14.43 65.4799 15.15 65.8099 15.69C66.1399 16.22 66.4299 16.64 66.6799 16.95C66.7899 17.12 67.0899 17.48 67.5699 18.04C68.0499 18.6 68.5999 19.25 69.2099 19.97C69.8199 20.7 70.4199 21.45 71.0199 22.22C71.6099 22.99 72.1099 23.67 72.5099 24.26C72.6799 24.51 72.8399 24.81 72.9999 25.14C73.1599 25.48 73.2999 25.83 73.4199 26.21C73.5499 26.59 73.6499 26.95 73.7399 27.3C73.8199 27.65 73.8799 27.97 73.9099 28.25C73.9699 28.92 73.9799 29.71 73.9499 30.6C73.9199 31.5 73.8399 32.35 73.6999 33.16C73.4199 34.92 72.6999 36.28 71.5499 37.22C70.3999 38.16 68.7799 38.63 66.6799 38.63C64.5799 38.63 62.8799 38.14 61.6699 37.16C60.4499 36.18 59.8399 34.62 59.8399 32.49V27.66H64.9799V32.58C64.9799 33.31 65.1399 33.86 65.4699 34.22C65.7999 34.58 66.2299 34.77 66.7699 34.77C67.3399 34.77 67.7599 34.57 68.0499 34.18C68.3299 33.79 68.4899 33.27 68.5199 32.62C68.5799 31.41 68.5799 30.39 68.5199 29.55C68.4599 28.68 68.2499 27.9 67.8799 27.2C67.5699 26.64 67.1599 26.03 66.6499 25.37C66.1399 24.71 65.5999 24.05 65.0399 23.37C64.4699 22.7 63.9199 22.06 63.3799 21.46C62.8399 20.86 62.3999 20.32 62.0599 19.84C61.3799 18.94 60.8899 18.1 60.5899 17.3C60.2899 16.5 60.1199 15.6 60.0599 14.59C60.0299 13.92 60.0299 13.25 60.0599 12.57C60.0899 11.9 60.1199 11.32 60.1499 10.85H60.1399ZM86.8699 38.17H82.2799V35.98H82.2399C82.0699 36.29 81.8899 36.59 81.7099 36.88C81.5299 37.17 81.2899 37.43 81.0099 37.66C80.7299 37.88 80.3899 38.07 79.9899 38.21C79.5899 38.35 79.1099 38.42 78.5499 38.42C77.3599 38.39 76.5399 38.06 76.0899 37.43C75.6399 36.8 75.3799 35.95 75.3299 34.89C75.2699 33.29 75.2399 31.75 75.2399 30.27C75.2399 28.79 75.2999 27.36 75.4099 25.98C75.4699 25.08 75.7499 24.39 76.2599 23.9C76.7699 23.41 77.3899 22.97 78.1299 22.58C78.5799 22.36 79.0499 22.12 79.5299 21.89C80.0099 21.65 80.4599 21.4 80.8699 21.13C81.2799 20.86 81.6099 20.59 81.8699 20.31C82.1299 20.03 82.2499 19.72 82.2499 19.39V15.82C82.2499 15.04 81.9099 14.64 81.2299 14.64C80.8599 14.64 80.5599 14.75 80.3199 14.98C80.0799 15.2 79.9599 15.5 79.9599 15.86L79.9199 18.89H75.5399V17.5C75.5399 15.31 76.0099 13.7 76.9599 12.67C77.9099 11.63 79.3999 11.11 81.4399 11.11C83.1999 11.11 84.5399 11.47 85.4799 12.2C86.4099 12.93 86.8799 14.13 86.8799 15.81V38.17H86.8699ZM79.9399 33.25C79.9399 33.78 80.0599 34.13 80.2999 34.3C80.5399 34.47 80.7999 34.55 81.0899 34.55C81.3999 34.55 81.6699 34.42 81.8999 34.17C82.1299 33.92 82.2399 33.58 82.2399 33.16V22.95C82.2099 23.12 82.0399 23.34 81.7099 23.6C81.3799 23.87 81.0899 24.12 80.8399 24.38C80.5799 24.63 80.3799 24.89 80.2199 25.16C80.0599 25.43 79.9899 25.74 79.9899 26.11L79.9499 33.26L79.9399 33.25ZM93.1099 16.14H93.1999C93.3999 15.3 93.5999 14.58 93.8199 13.97C94.0299 13.37 94.2699 12.88 94.5199 12.5C94.7699 12.12 95.0699 11.84 95.4099 11.66C95.7499 11.48 96.1599 11.4 96.6399 11.43V18.58C95.5599 18.52 94.7799 18.7 94.2799 19.11C93.7799 19.52 93.5399 20.11 93.5399 20.9V38.18H88.9099V11.7H93.1599L93.1199 16.16L93.1099 16.14ZM109.64 38.17H105.09V36.07H105.01C104.67 36.8 104.21 37.38 103.63 37.81C103.05 38.24 102.39 38.46 101.65 38.46C100.63 38.46 99.7799 38.21 99.0999 37.72C98.4199 37.23 98.0799 36.4 98.0799 35.22V15.51C98.0799 14.98 98.1399 14.45 98.2499 13.93C98.3599 13.41 98.5599 12.95 98.8499 12.54C99.1299 12.13 99.5099 11.81 99.9799 11.57C100.45 11.33 101.02 11.21 101.7 11.21C102.55 11.21 103.22 11.45 103.72 11.95C104.22 12.44 104.62 13.02 104.93 13.69H105.02V5.07004H109.65V38.15L109.64 38.17ZM105.01 16.56C105.01 16.08 104.9 15.73 104.69 15.49C104.48 15.25 104.2 15.13 103.86 15.13C103.55 15.13 103.3 15.27 103.12 15.55C102.94 15.83 102.84 16.25 102.84 16.81V32.74C102.84 33.86 103.15 34.42 103.78 34.42C104.15 34.42 104.45 34.28 104.67 34C104.9 33.72 105.01 33.27 105.01 32.66V16.56ZM116.19 11.68V38.16H111.56V11.68H116.19ZM129.62 38.16H124.99V16.81C124.99 16.25 124.9 15.86 124.71 15.65C124.53 15.44 124.28 15.33 123.97 15.33C123.57 15.33 123.28 15.48 123.1 15.79C122.92 16.1 122.82 16.49 122.82 16.97V38.16H118.19V11.64H122.82V13.99H122.9C123.3 13.15 123.75 12.48 124.26 11.97C124.77 11.47 125.48 11.21 126.39 11.21C127.58 11.21 128.42 11.51 128.9 12.11C129.38 12.71 129.62 13.71 129.62 15.12V38.16ZM142.96 38.16H138.33V16.81C138.33 16.25 138.24 15.86 138.05 15.65C137.87 15.44 137.62 15.33 137.31 15.33C136.91 15.33 136.62 15.48 136.44 15.79C136.26 16.1 136.16 16.49 136.16 16.97V38.16H131.53V5.09004H136.16V14H136.24C136.64 13.16 137.09 12.49 137.6 11.98C138.11 11.48 138.82 11.22 139.72 11.22C140.91 11.22 141.75 11.52 142.23 12.12C142.71 12.72 142.95 13.71 142.95 15.08V38.16H142.96ZM156.3 38.16H151.71V35.97H151.67C151.5 36.28 151.32 36.58 151.14 36.87C150.96 37.16 150.72 37.42 150.44 37.65C150.16 37.87 149.82 38.06 149.42 38.2C149.02 38.34 148.54 38.41 147.98 38.41C146.79 38.38 145.97 38.05 145.52 37.42C145.07 36.79 144.81 35.94 144.76 34.88C144.7 33.28 144.68 31.74 144.68 30.26C144.68 28.78 144.74 27.35 144.85 25.97C144.91 25.07 145.19 24.38 145.7 23.89C146.21 23.4 146.83 22.96 147.57 22.57C148.02 22.35 148.49 22.11 148.97 21.88C149.45 21.64 149.9 21.39 150.31 21.12C150.72 20.85 151.05 20.58 151.31 20.3C151.56 20.02 151.69 19.71 151.69 19.38V15.81C151.69 15.03 151.35 14.63 150.67 14.63C150.3 14.63 150 14.74 149.76 14.97C149.52 15.19 149.4 15.49 149.4 15.85L149.36 18.88H144.98V17.49C144.98 15.3 145.45 13.69 146.4 12.66C147.35 11.62 148.84 11.1 150.88 11.1C152.64 11.1 153.98 11.46 154.92 12.19C155.85 12.92 156.32 14.12 156.32 15.8V38.16H156.3ZM149.37 33.24C149.37 33.77 149.49 34.12 149.73 34.29C149.97 34.46 150.23 34.54 150.52 34.54C150.83 34.54 151.1 34.41 151.33 34.16C151.56 33.91 151.67 33.57 151.67 33.15V22.94C151.64 23.11 151.47 23.33 151.14 23.59C150.81 23.86 150.52 24.11 150.27 24.37C150.02 24.62 149.81 24.88 149.65 25.15C149.49 25.42 149.42 25.73 149.42 26.1L149.38 33.25L149.37 33.24Z" fill="white"/>
</svg>
