<svg width="512" height="512" viewBox="0 0 512 512" fill="none" xmlns="http://www.w3.org/2000/svg">
<rect width="512" height="512" fill="white"/>
<path fill-rule="evenodd" clip-rule="evenodd" d="M247.691 420.896V338.302C247.691 337.413 246.686 336.907 245.969 337.438C205.007 367.834 158.387 395.546 107.121 419.922C106.085 420.418 106.436 421.977 107.586 421.977H246.61C247.207 421.977 247.691 421.49 247.691 420.896" fill="#6131B4"/>
<path fill-rule="evenodd" clip-rule="evenodd" d="M413.613 91.7061C414.118 90.9897 413.603 90 412.73 90H201.576C139.956 90 90 139.552 90 200.677V304.29C90 305.032 90.7288 305.553 91.4293 305.315C235.47 256.793 350.162 181.09 413.613 91.7061" fill="#6131B4"/>
<path fill-rule="evenodd" clip-rule="evenodd" d="M305.825 290.096V420.922C305.825 421.516 306.309 422 306.906 422H310.431C372.047 422 422 372.451 422 311.326V120.485C422 119.269 420.3 118.98 419.901 120.13C399.04 180.437 359.959 237.722 306.155 289.32C305.945 289.521 305.825 289.801 305.825 290.096" fill="#6131B4"/>
</svg>
