<svg width="192" height="192" viewBox="0 0 192 192" fill="none" xmlns="http://www.w3.org/2000/svg">
<rect width="192" height="192" fill="black"/>
<path d="M159.576 82.9723C161.241 77.9552 161.816 72.6404 161.265 67.3829C160.713 62.1253 159.046 57.0461 156.376 52.4845C152.417 45.5897 146.372 40.131 139.113 36.8952C131.854 33.6594 123.756 32.8139 115.985 34.4804C111.571 29.5669 105.942 25.9022 99.6639 23.8543C93.3859 21.8065 86.6799 21.4476 80.2195 22.8136C73.759 24.1797 67.7715 27.2227 62.8583 31.6369C57.9451 36.0512 54.2792 41.6813 52.2288 47.9618C47.0522 49.024 42.1617 51.1795 37.8842 54.2843C33.6067 57.3891 30.0408 61.3717 27.4248 65.9659C23.423 72.8492 21.7127 80.8276 22.5411 88.7476C23.3695 96.6675 26.6936 104.119 32.0329 110.024C30.3618 115.038 29.7802 120.352 30.327 125.61C30.8738 130.868 32.5363 135.948 35.2035 140.511C39.1672 147.408 45.2172 152.868 52.4814 156.104C59.7457 159.34 67.8491 160.184 75.6238 158.516C79.1311 162.468 83.4405 165.625 88.2645 167.778C93.0885 169.931 98.3159 171.029 103.598 170.999C111.562 171.007 119.323 168.482 125.76 163.788C132.197 159.095 136.976 152.477 139.409 144.888C144.585 143.824 149.475 141.668 153.753 138.563C158.03 135.459 161.596 131.477 164.213 126.884C168.168 120.011 169.849 112.062 169.016 104.175C168.183 96.2884 164.878 88.8666 159.576 82.9723ZM103.598 161.247C97.0751 161.258 90.7568 158.97 85.751 154.786L86.6314 154.287L116.279 137.163C117.017 136.73 117.629 136.112 118.056 135.371C118.484 134.629 118.711 133.789 118.715 132.933V91.1083L131.249 98.3634C131.31 98.3948 131.364 98.4404 131.405 98.4965C131.446 98.5526 131.473 98.6176 131.484 98.6862V133.345C131.469 140.74 128.525 147.828 123.299 153.058C118.073 158.287 110.989 161.232 103.598 161.247ZM43.6572 135.636C40.386 129.984 39.2115 123.359 40.3402 116.926L41.2213 117.455L70.8978 134.578C71.6321 135.009 72.4681 135.237 73.3195 135.237C74.1708 135.237 75.0068 135.009 75.7411 134.578L111.993 113.666V128.146C111.99 128.221 111.97 128.294 111.934 128.36C111.898 128.426 111.848 128.484 111.787 128.528L81.7583 145.857C75.3498 149.551 67.7381 150.549 60.5945 148.633C53.451 146.717 47.3594 142.042 43.6572 135.636ZM35.8494 71.0182C39.1433 65.33 44.3424 60.9914 50.5263 58.7705V94.0163C50.5151 94.8678 50.7326 95.7067 51.1559 96.4455C51.5793 97.1842 52.193 97.7957 52.9331 98.2162L89.009 119.041L76.4751 126.295C76.4073 126.331 76.3316 126.35 76.2548 126.35C76.178 126.35 76.1024 126.331 76.0346 126.295L46.0646 108.996C39.6681 105.286 35.0015 99.1906 33.0869 92.045C31.1723 84.8995 32.1656 77.2859 35.8494 70.8717V71.0182ZM138.822 94.9562L102.629 73.9262L115.134 66.6997C115.202 66.6637 115.277 66.6448 115.354 66.6448C115.431 66.6448 115.507 66.6637 115.575 66.6997L145.545 84.029C150.127 86.6747 153.863 90.5701 156.315 95.2605C158.768 99.9509 159.837 105.243 159.397 110.518C158.957 115.793 157.026 120.835 153.83 125.053C150.634 129.272 146.304 132.494 141.347 134.342V99.0966C141.321 98.2465 141.075 97.4178 140.632 96.6918C140.189 95.9659 139.566 95.3681 138.822 94.9562ZM151.298 76.1879L150.417 75.6589L120.799 58.3886C120.061 57.9548 119.219 57.7261 118.363 57.7261C117.506 57.7261 116.665 57.9548 115.926 58.3886L79.7046 79.3007V64.8211C79.6969 64.7475 79.7092 64.6731 79.7402 64.6059C79.7712 64.5387 79.8198 64.4811 79.8808 64.4393L109.851 47.1392C114.444 44.4914 119.696 43.2071 124.992 43.4363C130.288 43.6655 135.409 45.3988 139.757 48.4335C144.105 51.4682 147.499 55.6788 149.543 60.5729C151.587 65.467 152.196 70.8422 151.299 76.0699L151.298 76.1879ZM72.864 101.857L60.3308 94.6322C60.2681 94.5944 60.2145 94.5433 60.1737 94.4824C60.133 94.4216 60.1061 94.3525 60.095 94.2802V59.7104C60.1019 54.4071 61.6175 49.2153 64.4646 44.7421C67.3117 40.2689 71.3726 36.6992 76.1726 34.4502C80.9725 32.2013 86.3132 31.3661 91.57 32.0423C96.8269 32.7185 101.783 34.8781 105.858 38.2687L104.977 38.7685L75.3304 55.891C74.5925 56.3241 73.9799 56.9417 73.5527 57.6833C73.1255 58.4248 72.8984 59.2648 72.8938 60.1208L72.864 101.857ZM79.6742 87.1723L95.8185 77.861L111.993 87.1723V105.793L95.8775 115.104L79.704 105.793L79.6742 87.1723Z" fill="white"/>
<path d="M157.51 116.547C161.463 113.034 164.622 108.719 166.776 103.89C168.93 99.061 170.029 93.8299 169.999 88.5458C170.022 80.5974 167.52 72.8509 162.853 66.423C158.186 59.9951 151.595 55.2179 144.032 52.7802C142.668 46.3201 139.628 40.3349 135.216 35.4258C130.804 30.5167 125.176 26.8565 118.897 24.8127C112.619 22.769 105.91 22.4138 99.4459 23.7827C92.9814 25.1516 86.9886 28.1964 82.0693 32.6114C77.0545 30.9457 71.7403 30.3699 66.4818 30.9223C61.2233 31.4747 56.1417 33.1427 51.5766 35.8148C44.6656 39.7772 39.191 45.8324 35.9441 53.105C32.6972 60.3777 31.8464 68.4909 33.5147 76.2716C29.5574 79.7798 26.3939 84.0913 24.2357 88.9177C22.0776 93.7441 20.9746 98.9741 21.0004 104.258C20.9808 112.211 23.4872 119.961 28.1586 126.392C32.8301 132.822 39.4251 137.601 46.9934 140.039C48.0527 145.213 50.2042 150.1 53.3044 154.374C56.4045 158.648 60.3819 162.21 64.9711 164.822C71.8648 168.806 79.8497 170.496 87.7733 169.646C95.6969 168.797 103.149 165.452 109.054 160.096C114.07 161.76 119.384 162.334 124.642 161.782C129.9 161.229 134.982 159.562 139.547 156.892C146.412 152.915 151.846 146.871 155.073 139.624C158.299 132.378 159.152 124.3 157.51 116.547ZM69.8523 156.377C64.1983 153.128 59.8716 147.991 57.6308 141.867L58.6431 141.874L92.8896 141.852C93.7453 141.846 94.585 141.617 95.3262 141.188C96.0673 140.759 96.6844 140.145 97.1168 139.406L118.052 103.185L125.274 115.728C125.312 115.786 125.336 115.852 125.343 115.921C125.351 115.99 125.342 116.06 125.317 116.125L107.969 146.14C104.254 152.537 98.1571 157.206 91.0134 159.124C83.8698 161.043 76.261 160.055 69.8523 156.377ZM30.7619 104.258C30.758 97.7294 33.0569 91.4052 37.2544 86.3979L37.7527 87.2961L54.8822 116.948C55.3023 117.688 55.9125 118.303 56.6498 118.728C57.3871 119.153 58.2249 119.374 59.0766 119.367L100.939 119.363L93.6915 131.903C93.651 131.966 93.5968 132.02 93.5328 132.059C93.4688 132.099 93.3968 132.123 93.322 132.131L58.6423 132.14C51.2433 132.138 44.1517 129.201 38.9244 123.974C33.6971 118.746 30.7614 111.655 30.7619 104.258ZM56.3436 44.398C62.0434 41.117 68.7176 39.9564 75.1847 41.1217L57.5428 71.6455C57.1069 72.3773 56.8753 73.2124 56.8722 74.0636C56.869 74.9149 57.0944 75.751 57.5249 76.4848L78.344 112.538L63.8583 112.56C63.7815 112.558 63.7066 112.536 63.6401 112.498C63.5736 112.459 63.5175 112.405 63.4768 112.34L46.181 82.3896C42.4985 75.9818 41.508 68.3725 43.4265 61.228C45.345 54.0834 50.0161 47.9861 56.4169 44.2711L56.3436 44.398ZM133.539 116.56L112.721 80.2704L127.168 80.2577C127.244 80.2604 127.319 80.2818 127.386 80.3202C127.452 80.3586 127.508 80.4127 127.549 80.4777L144.83 110.454C147.474 115.034 148.76 120.274 148.536 125.561C148.313 130.848 146.589 135.964 143.568 140.313C140.546 144.662 136.351 148.063 131.471 150.12C126.592 152.178 121.23 152.805 116.011 151.93L133.653 121.407C134.056 120.658 134.257 119.817 134.237 118.967C134.217 118.117 133.977 117.288 133.539 116.56ZM153.737 106.537L153.239 105.639L136.234 75.8898C135.811 75.1451 135.197 74.5269 134.456 74.099C133.714 73.6712 132.871 73.4492 132.014 73.4558L90.1776 73.4749L97.4253 60.9351C97.4554 60.8675 97.5033 60.8093 97.5638 60.7666C97.6243 60.7239 97.6952 60.6983 97.769 60.6925L132.383 60.679C137.686 60.6802 142.877 62.191 147.349 65.0347C151.821 67.8784 155.389 71.9374 157.635 76.737C159.881 81.5367 160.713 86.8785 160.033 92.1377C159.354 97.397 157.191 102.356 153.797 106.435L153.737 106.537ZM72.9631 89.5929L65.7255 77.0758C65.6901 77.0118 65.6692 76.9407 65.6644 76.8677C65.6595 76.7946 65.6708 76.7214 65.6975 76.6532L83.001 46.7149C85.6614 42.1255 89.5726 38.3863 94.2773 35.9344C98.982 33.4826 104.286 32.4193 109.568 32.8691C114.851 33.3188 119.894 35.263 124.108 38.4742C128.322 41.6854 131.533 46.031 133.365 51.0028L132.352 50.9956L98.1069 51.0167C97.2511 51.0232 96.4114 51.2521 95.6703 51.6809C94.9292 52.1098 94.3121 52.7239 93.8796 53.4628L72.9631 89.5929ZM86.2113 80.2766L104.853 80.2763L114.2 96.4187L104.88 112.545L86.2628 112.559L76.9165 96.4179L86.2113 80.2766Z" fill="white"/>
<path d="M80.2563 158.902C80.2563 161.536 78.1217 163.67 75.4885 163.67C72.8554 163.67 70.7208 161.536 70.7208 158.902C70.7208 156.269 72.8554 154.135 75.4885 154.135C78.1217 154.135 80.2563 156.269 80.2563 158.902Z" fill="white"/>
<path d="M114.312 161.457C114.312 164.09 112.177 166.224 109.544 166.224C106.911 166.224 104.776 164.09 104.776 161.457C104.776 158.823 106.911 156.689 109.544 156.689C112.177 156.689 114.312 158.823 114.312 161.457Z" fill="white"/>
<path d="M163.011 118.206C163.011 120.839 160.876 122.974 158.243 122.974C155.61 122.974 153.475 120.839 153.475 118.206C153.475 115.573 155.61 113.439 158.243 113.439C160.876 113.439 163.011 115.573 163.011 118.206Z" fill="white"/>
<path d="M149.899 52.139C149.899 54.7721 147.765 56.9067 145.132 56.9067C142.498 56.9067 140.364 54.7721 140.364 52.139C140.364 49.5058 142.498 47.3712 145.132 47.3712C147.765 47.3712 149.899 49.5058 149.899 52.139Z" fill="white"/>
<path d="M117.547 34.4302C117.547 37.0633 115.412 39.1979 112.779 39.1979C110.146 39.1979 108.011 37.0633 108.011 34.4302C108.011 31.797 110.146 29.6624 112.779 29.6624C115.412 29.6624 117.547 31.797 117.547 34.4302Z" fill="white"/>
<path d="M57.7797 47.3712C57.7797 50.0044 55.6452 52.139 53.012 52.139C50.3788 52.139 48.2443 50.0044 48.2443 47.3712C48.2443 44.7381 50.3788 42.6035 53.012 42.6035C55.6452 42.6035 57.7797 44.7381 57.7797 47.3712Z" fill="white"/>
<path d="M33.0896 108.671C33.0896 111.304 30.955 113.439 28.3219 113.439C25.6887 113.439 23.5541 111.304 23.5541 108.671C23.5541 106.038 25.6887 103.903 28.3219 103.903C30.955 103.903 33.0896 106.038 33.0896 108.671Z" fill="white"/>
</svg>
