<svg width="208" height="208" viewBox="0 0 208 208" fill="none" xmlns="http://www.w3.org/2000/svg">
<path d="M205.573 98.139C208.809 101.375 208.809 106.623 205.573 109.859L135.798 179.635C132.31 183.122 127.58 185.081 122.648 185.081C112.377 185.081 104.051 176.755 104.051 166.485V165.308C104.051 160.064 106.134 155.035 109.842 151.327L143.028 118.141C150.839 110.331 150.839 97.6675 143.028 89.857L109.821 56.6489C106.127 52.9545 104.051 47.9438 104.051 42.7191V41.6878C104.051 31.3775 112.409 23.0193 122.72 23.0193C127.671 23.0193 132.419 24.9861 135.92 28.4871L205.573 98.139Z" fill="url(#paint0_linear_32_133)"></path>
<path d="M2.4272 98.139C-0.809117 101.375 -0.809015 106.623 2.4272 109.859L72.2024 179.635C75.69 183.122 80.4201 185.081 85.3523 185.081C95.6229 185.081 103.949 176.755 103.949 166.485V165.308C103.949 160.064 101.866 155.035 98.1576 151.327L64.9719 118.141C57.1615 110.331 57.1614 97.6675 64.9717 89.857L98.1791 56.6489C101.873 52.9545 103.949 47.9438 103.949 42.7191V41.6878C103.949 31.3775 95.5907 23.0193 85.2804 23.0193C80.3292 23.0193 75.5808 24.9861 72.0798 28.4871L2.4272 98.139Z" fill="url(#paint1_linear_32_133)"></path>
<path d="M138.286 122.883C144.288 116.881 152.771 121.357 148.418 128.645L137.648 146.676C133.919 152.918 131.95 160.055 131.95 167.326V180.938C131.95 182.669 131.15 184.281 129.926 185.506L109.86 205.573L109.551 205.867C106.403 208.711 101.598 208.711 98.4494 205.867L98.1398 205.573L79.1524 186.586C77.6348 185.068 76.6126 183.084 76.6125 180.938V167.214C76.6124 160.011 74.6865 152.939 71.0335 146.732L60.2304 128.375C56.2046 121.533 64.1269 117.297 69.7397 122.91L90.137 143.307C97.7932 150.963 110.206 150.963 117.862 143.307L138.286 122.883Z" fill="url(#paint2_linear_32_133)"></path>
<path d="M98.1398 2.42728C101.376 -0.809094 106.623 -0.809094 109.86 2.42728L129.839 22.4054C131.114 23.6808 131.95 25.3585 131.95 27.1622V40.7735C131.95 48.0452 133.919 55.1815 137.648 61.4242L148.418 79.4541C152.743 86.6947 144.319 91.1488 138.356 85.1849L117.827 64.6557C110.19 57.019 97.809 57.0189 90.1724 64.6554L69.6698 85.1576C64.0955 90.7319 56.2322 86.5183 60.2304 79.7242L71.0335 61.3671C74.6863 55.1598 76.6125 48.0882 76.6125 40.8859V27.1622C76.6126 24.9413 77.6755 22.8906 79.246 21.3202L98.1398 2.42728Z" fill="url(#paint3_linear_32_133)"></path>
<defs>
<linearGradient id="paint0_linear_32_133" x1="208.102" y1="104.05" x2="148.71" y2="104.05" gradientUnits="userSpaceOnUse"><stop stop-color="white"></stop><stop offset="0.725962" stop-color="#FBFBFB"></stop><stop offset="1" stop-color="#C9C9C9"></stop></linearGradient>
<linearGradient id="paint1_linear_32_133" x1="-0.102301" y1="104.05" x2="59.2897" y2="104.05" gradientUnits="userSpaceOnUse"><stop stop-color="white"></stop><stop offset="0.725962" stop-color="#FBFBFB"></stop><stop offset="1" stop-color="#C9C9C9"></stop></linearGradient>
<linearGradient id="paint2_linear_32_133" x1="104.425" y1="0" x2="104.425" y2="208" gradientUnits="userSpaceOnUse"><stop stop-color="white"></stop><stop offset="0.201923" stop-color="#FBFBFB"></stop><stop offset="0.8" stop-color="#FBFBFB"></stop><stop offset="1" stop-color="white"></stop></linearGradient>
<linearGradient id="paint3_linear_32_133" x1="104.425" y1="0" x2="104.425" y2="208" gradientUnits="userSpaceOnUse"><stop stop-color="white"></stop><stop offset="0.201923" stop-color="#FBFBFB"></stop><stop offset="0.8" stop-color="#FBFBFB"></stop><stop offset="1" stop-color="white"></stop></linearGradient>
</defs>
</svg>
