 <svg width="132" height="38" viewBox="0 0 132 38" fill="none" xmlns="http://www.w3.org/2000/svg">
                            <path d="M131.266 33.6174C131.266 35.6425 129.585 37.2828 127.507 37.2828H4.4962C2.41872 37.2828 0.732422 35.6425 0.732422 33.6174V4.38699C0.732422 2.36288 2.41872 0.716797 4.4962 0.716797H127.506C129.585 0.716797 131.265 2.36288 131.265 4.38699L131.266 33.6174Z" fill="black"></path>
                            <path d="M127.111 0.761189C129.375 0.761189 131.217 2.55075 131.217 4.75V33.25C131.217 35.4493 129.375 37.2388 127.111 37.2388H4.88889C2.62533 37.2388 0.783444 35.4493 0.783444 33.25V4.75C0.783444 2.55075 2.62533 0.761189 4.88889 0.761189H127.111ZM127.111 3.8147e-06H4.88889C2.20122 3.8147e-06 0 2.13869 0 4.75V33.25C0 35.8613 2.20122 38 4.88889 38H127.111C129.799 38 132 35.8613 132 33.25V4.75C132 2.13869 129.799 3.8147e-06 127.111 3.8147e-06Z" fill="#A6A6A6"></path>
                            <path d="M29.4587 18.7949C29.4303 15.733 32.039 14.2434 32.1583 14.1741C30.6809 12.0812 28.3909 11.7953 27.5862 11.7725C25.6629 11.5758 23.7973 12.8906 22.8176 12.8906C21.8183 12.8906 20.3096 11.7915 18.6836 11.8238C16.5911 11.8551 14.6336 13.0322 13.56 14.86C11.3444 18.5868 12.9968 24.0636 15.1196 27.076C16.1814 28.5514 17.4222 30.1987 19.0463 30.1407C20.6352 30.0771 21.2287 29.1565 23.1461 29.1565C25.046 29.1565 25.6033 30.1407 27.2596 30.1037C28.9649 30.0771 30.0385 28.6217 31.0632 27.133C32.2903 25.442 32.7831 23.7767 32.8027 23.6912C32.7626 23.6779 29.4909 22.4647 29.4587 18.7949Z" fill="white"></path>
                            <path d="M26.3298 9.7908C27.1844 8.75245 27.7691 7.3398 27.6068 5.90625C26.3699 5.95945 24.823 6.7375 23.9323 7.75305C23.1442 8.64795 22.4402 10.1147 22.622 11.4941C24.0115 11.5948 25.438 10.813 26.3298 9.7908Z" fill="white"></path>
                            <path d="M52.4521 29.9287H50.2316L49.0152 26.2152H44.7873L43.6287 29.9287H41.4668L45.6556 17.2861H48.2428L52.4521 29.9287ZM48.6486 24.6572L47.5486 21.3559C47.4322 21.0187 47.2142 20.2245 46.8925 18.9743H46.8534C46.7253 19.512 46.519 20.3062 46.2354 21.3559L45.155 24.6572H48.6486Z" fill="white"></path>
                            <path d="M63.2251 25.2586C63.2251 26.809 62.7939 28.0345 61.9315 28.9342C61.1591 29.735 60.1999 30.135 59.0549 30.135C57.819 30.135 56.9311 29.7037 56.3904 28.8411H56.3513V33.6433H54.2667V23.8137C54.2667 22.839 54.2403 21.8386 54.1895 20.8126H56.0228L56.1391 22.2576H56.1783C56.8735 21.1689 57.9285 20.6255 59.3443 20.6255C60.4511 20.6255 61.3751 21.0501 62.1143 21.9004C62.8555 22.7516 63.2251 23.8707 63.2251 25.2586ZM61.1014 25.3327C61.1014 24.4454 60.896 23.7139 60.4834 23.1382C60.0327 22.5378 59.4274 22.2376 58.6687 22.2376C58.1543 22.2376 57.687 22.4048 57.2695 22.7345C56.851 23.067 56.5772 23.5011 56.4491 24.0388C56.3846 24.2896 56.3523 24.4948 56.3523 24.6563V26.1763C56.3523 26.8394 56.5615 27.399 56.98 27.8559C57.3985 28.3129 57.9422 28.5409 58.611 28.5409C59.3961 28.5409 60.0072 28.2464 60.4443 27.6593C60.8823 27.0712 61.1014 26.296 61.1014 25.3327Z" fill="white"></path>
                            <path d="M74.0151 25.2586C74.0151 26.809 73.5839 28.0345 72.7206 28.9342C71.9491 29.735 70.9899 30.135 69.8449 30.135C68.609 30.135 67.7212 29.7037 67.1814 28.8411H67.1423V33.6433H65.0577V23.8137C65.0577 22.839 65.0313 21.8386 64.9805 20.8126H66.8138L66.9302 22.2576H66.9693C67.6635 21.1689 68.7185 20.6255 70.1353 20.6255C71.2412 20.6255 72.1652 21.0501 72.9063 21.9004C73.6446 22.7516 74.0151 23.8707 74.0151 25.2586ZM71.8914 25.3327C71.8914 24.4454 71.6851 23.7139 71.2725 23.1382C70.8217 22.5378 70.2184 22.2376 69.4587 22.2376C68.9434 22.2376 68.477 22.4048 68.0585 22.7345C67.64 23.067 67.3672 23.5011 67.2391 24.0388C67.1756 24.2896 67.1423 24.4948 67.1423 24.6563V26.1763C67.1423 26.8394 67.3516 27.399 67.7681 27.8559C68.1866 28.3119 68.7303 28.5409 69.401 28.5409C70.1862 28.5409 70.7973 28.2464 71.2343 27.6593C71.6724 27.0712 71.8914 26.296 71.8914 25.3327Z" fill="white"></path>
                            <path d="M86.0823 26.3835C86.0823 27.4589 85.698 28.3339 84.9266 29.0093C84.0788 29.7475 82.8987 30.1161 81.3821 30.1161C79.9819 30.1161 78.8595 29.8539 78.0098 29.3285L78.4928 27.6404C79.408 28.1781 80.4122 28.4479 81.5063 28.4479C82.2915 28.4479 82.9026 28.275 83.3416 27.9311C83.7787 27.5872 83.9967 27.1255 83.9967 26.5498C83.9967 26.0368 83.8168 25.6045 83.456 25.254C83.0971 24.9034 82.4978 24.5776 81.6608 24.2764C79.3826 23.4509 78.2444 22.2415 78.2444 20.6512C78.2444 19.6119 78.6434 18.7598 79.4422 18.0967C80.2381 17.4326 81.3 17.1011 82.6278 17.1011C83.8119 17.1011 84.7955 17.3015 85.5807 17.7015L85.0595 19.3526C84.3262 18.965 83.4971 18.7712 82.5691 18.7712C81.8358 18.7712 81.2628 18.9469 80.8522 19.2965C80.5051 19.6091 80.331 19.99 80.331 20.4413C80.331 20.941 80.5295 21.3542 80.9284 21.6791C81.2755 21.9793 81.9062 22.3042 82.8214 22.6548C83.941 23.0927 84.7633 23.6048 85.2923 24.1919C85.8193 24.7771 86.0823 25.5095 86.0823 26.3835Z" fill="white"></path>
                            <path d="M92.9739 22.333H90.6761V26.759C90.6761 27.8848 91.0809 28.4472 91.8925 28.4472C92.265 28.4472 92.574 28.4158 92.8184 28.3531L92.8761 29.8912C92.4654 30.0403 91.9247 30.1154 91.255 30.1154C90.4317 30.1154 89.7883 29.8712 89.3239 29.3839C88.8614 28.8956 88.6286 28.0767 88.6286 26.9262V22.3311H87.2598V20.8111H88.6286V19.1419L90.6761 18.5415V20.8111H92.9739V22.333Z" fill="white"></path>
                            <path d="M103.342 25.2957C103.342 26.697 102.93 27.8474 102.107 28.7471C101.243 29.6733 100.097 30.135 98.6687 30.135C97.292 30.135 96.1959 29.6914 95.3785 28.8041C94.5611 27.9168 94.1523 26.7967 94.1523 25.4468C94.1523 24.0341 94.5728 22.877 95.4166 21.9774C96.2585 21.0768 97.3947 20.6265 98.8232 20.6265C100.2 20.6265 101.308 21.0701 102.144 21.9584C102.944 22.82 103.342 23.9325 103.342 25.2957ZM101.18 25.3613C101.18 24.5205 100.995 23.7995 100.62 23.1981C100.183 22.4704 99.5585 22.1075 98.7489 22.1075C97.9109 22.1075 97.2744 22.4714 96.8373 23.1981C96.4628 23.8004 96.278 24.5329 96.278 25.3993C96.278 26.24 96.4628 26.9611 96.8373 27.5615C97.2881 28.2892 97.9178 28.6521 98.7303 28.6521C99.5262 28.6521 100.151 28.2816 100.602 27.5425C100.986 26.9297 101.18 26.2011 101.18 25.3613Z" fill="white"></path>
                            <path d="M110.118 22.5939C109.911 22.5568 109.691 22.5378 109.461 22.5378C108.727 22.5378 108.16 22.8067 107.761 23.3453C107.414 23.8203 107.24 24.4207 107.24 25.1456V29.9288H105.156L105.176 23.6835C105.176 22.6328 105.149 21.6762 105.098 20.8136H106.913L106.99 22.5578H107.047C107.267 21.9583 107.614 21.4757 108.09 21.1138C108.554 20.7879 109.056 20.6255 109.596 20.6255C109.789 20.6255 109.963 20.6388 110.118 20.6625V22.5939Z" fill="white"></path>
                            <path d="M119.44 24.9394C119.44 25.3023 119.416 25.6082 119.364 25.8581H113.11C113.134 26.7587 113.436 27.4474 114.017 27.9224C114.544 28.3471 115.226 28.5599 116.063 28.5599C116.989 28.5599 117.834 28.4164 118.593 28.1286L118.92 29.5346C118.032 29.9108 116.984 30.0979 115.774 30.0979C114.319 30.0979 113.177 29.6818 112.346 28.8506C111.517 28.0193 111.102 26.9031 111.102 25.5028C111.102 24.1281 111.488 22.9834 112.261 22.0704C113.071 21.0957 114.165 20.6084 115.542 20.6084C116.894 20.6084 117.918 21.0957 118.613 22.0704C119.163 22.8447 119.44 23.8023 119.44 24.9394ZM117.452 24.4141C117.466 23.8137 117.33 23.295 117.047 22.857C116.687 22.2937 116.132 22.0125 115.386 22.0125C114.705 22.0125 114.15 22.287 113.727 22.838C113.38 23.276 113.173 23.8013 113.11 24.4131H117.452V24.4141Z" fill="white"></path>
                            <path d="M47.9597 9.50827C47.9597 10.6264 47.6145 11.4681 46.9252 12.0334C46.2867 12.5549 45.3793 12.8162 44.204 12.8162C43.6213 12.8162 43.1226 12.7915 42.7051 12.7421V6.63262C43.2497 6.54712 43.8364 6.50342 44.47 6.50342C45.5895 6.50342 46.4333 6.73997 47.0024 7.21307C47.6399 7.74792 47.9597 8.51267 47.9597 9.50827ZM46.8792 9.53582C46.8792 8.81097 46.6817 8.25522 46.2867 7.86762C45.8917 7.48097 45.3148 7.28717 44.555 7.28717C44.2324 7.28717 43.9576 7.30807 43.7298 7.35177V11.9963C43.8559 12.0153 44.0867 12.0239 44.4221 12.0239C45.2062 12.0239 45.8115 11.812 46.2378 11.3883C46.6641 10.9646 46.8792 10.3471 46.8792 9.53582Z" fill="white"></path>
                            <path d="M53.6882 10.4852C53.6882 11.1739 53.4858 11.7382 53.081 12.1809C52.6567 12.636 52.0945 12.863 51.3924 12.863C50.7158 12.863 50.177 12.6455 49.7752 12.2085C49.3743 11.7724 49.1738 11.2224 49.1738 10.5593C49.1738 9.86579 49.3801 9.29674 49.7947 8.85499C50.2093 8.41324 50.7666 8.19189 51.4687 8.19189C52.1453 8.19189 52.6889 8.40944 53.1006 8.84549C53.4917 9.26919 53.6882 9.81639 53.6882 10.4852ZM52.6254 10.5175C52.6254 10.1042 52.5335 9.74989 52.3506 9.45444C52.1355 9.09724 51.8295 8.91864 51.4315 8.91864C51.0199 8.91864 50.707 9.09724 50.4919 9.45444C50.3081 9.74989 50.2171 10.1099 50.2171 10.5355C50.2171 10.9488 50.309 11.3031 50.4919 11.5986C50.7138 11.9558 51.0228 12.1344 51.4217 12.1344C51.8129 12.1344 52.1199 11.9529 52.3409 11.5891C52.5305 11.2879 52.6254 10.9307 52.6254 10.5175Z" fill="white"></path>
                            <path d="M61.3696 8.28271L59.9274 12.761H58.9887L58.3913 10.8164C58.2398 10.3309 58.1166 9.84831 58.0207 9.36951H58.0022C57.9132 9.86161 57.79 10.3433 57.6316 10.8164L56.997 12.761H56.0476L54.6914 8.28271H55.7445L56.2656 10.4117C56.3918 10.9152 56.4954 11.3949 56.5785 11.849H56.5971C56.6734 11.4747 56.7995 10.9978 56.9774 10.4212L57.6316 8.28367H58.4666L59.0934 10.3756C59.2449 10.8857 59.3681 11.3769 59.463 11.85H59.4913C59.5607 11.3892 59.6654 10.8981 59.8042 10.3756L60.3635 8.28367H61.3696V8.28271Z" fill="white"></path>
                            <path d="M66.6827 12.7613H65.658V10.1963C65.658 9.40592 65.3491 9.01071 64.7291 9.01071C64.4251 9.01071 64.1796 9.11902 63.989 9.33657C63.8003 9.55412 63.7044 9.81062 63.7044 10.1042V12.7604H62.6797V9.56267C62.6797 9.16937 62.667 8.74282 62.6426 8.28111H63.5431L63.591 8.98127H63.6194C63.7387 8.76372 63.9166 8.58417 64.1503 8.44072C64.428 8.27352 64.7389 8.18896 65.0792 8.18896C65.5094 8.18896 65.8673 8.32386 66.1518 8.59462C66.5058 8.92617 66.6827 9.42112 66.6827 10.0785V12.7613Z" fill="white"></path>
                            <path d="M69.5081 12.7612H68.4844V6.22803H69.5081V12.7612Z" fill="white"></path>
                            <path d="M75.5417 10.4852C75.5417 11.1739 75.3393 11.7382 74.9345 12.1809C74.5102 12.636 73.947 12.863 73.2459 12.863C72.5683 12.863 72.0296 12.6455 71.6287 12.2085C71.2278 11.7724 71.0273 11.2224 71.0273 10.5593C71.0273 9.86579 71.2337 9.29674 71.6482 8.85499C72.0628 8.41324 72.6201 8.19189 73.3212 8.19189C73.9988 8.19189 74.5415 8.40944 74.9541 8.84549C75.3452 9.26919 75.5417 9.81639 75.5417 10.4852ZM74.4779 10.5175C74.4779 10.1042 74.386 9.74989 74.2032 9.45444C73.989 9.09724 73.682 8.91864 73.285 8.91864C72.8724 8.91864 72.5595 9.09724 72.3454 9.45444C72.1616 9.74989 72.0706 10.1099 72.0706 10.5355C72.0706 10.9488 72.1625 11.3031 72.3454 11.5986C72.5673 11.9558 72.8763 12.1344 73.2753 12.1344C73.6664 12.1344 73.9724 11.9529 74.1934 11.5891C74.3841 11.2879 74.4779 10.9307 74.4779 10.5175Z" fill="white"></path>
                            <path d="M80.5008 12.7614H79.5807L79.5044 12.2455H79.4761C79.1612 12.6569 78.7124 12.863 78.1297 12.863C77.6946 12.863 77.3426 12.7272 77.0776 12.4574C76.8371 12.2123 76.7168 11.9073 76.7168 11.5454C76.7168 10.9982 76.9515 10.5811 77.4237 10.2923C77.895 10.0035 78.558 9.86199 79.4116 9.86864V9.78504C79.4116 9.19509 79.0928 8.90059 78.4543 8.90059C77.9996 8.90059 77.5988 9.01174 77.2526 9.23214L77.0444 8.57854C77.4726 8.32109 78.0016 8.19189 78.6254 8.19189C79.83 8.19189 80.4343 8.80939 80.4343 10.0444V11.6936C80.4343 12.141 80.4568 12.4973 80.5008 12.7614ZM79.437 11.2224V10.5317C78.3067 10.5127 77.7415 10.8139 77.7415 11.4342C77.7415 11.6679 77.806 11.8427 77.938 11.9596C78.07 12.0764 78.2382 12.1344 78.4387 12.1344C78.6636 12.1344 78.8738 12.065 79.0654 11.9273C79.258 11.7886 79.3763 11.6128 79.4203 11.3972C79.4311 11.3487 79.437 11.2898 79.437 11.2224Z" fill="white"></path>
                            <path d="M86.3219 12.7612H85.4125L85.3646 12.042H85.3363C85.0459 12.5892 84.5511 12.8628 83.8559 12.8628C83.3005 12.8628 82.838 12.651 82.4714 12.2273C82.1047 11.8036 81.9219 11.2535 81.9219 10.5781C81.9219 9.85323 82.1204 9.26613 82.5193 8.81773C82.9055 8.39973 83.3788 8.19073 83.942 8.19073C84.5609 8.19073 84.994 8.39308 85.2404 8.79873H85.26V6.22803H86.2857V11.5547C86.2857 11.9907 86.2974 12.3926 86.3219 12.7612ZM85.26 10.8726V10.1259C85.26 9.99668 85.2502 9.89218 85.2316 9.81238C85.174 9.57298 85.0498 9.37158 84.8611 9.20913C84.6704 9.04668 84.4406 8.96498 84.1756 8.96498C83.7933 8.96498 83.4941 9.11223 83.2741 9.40768C83.0561 9.70313 82.9456 10.0803 82.9456 10.541C82.9456 10.9837 83.0502 11.3428 83.2604 11.6193C83.4824 11.9138 83.7816 12.061 84.1561 12.061C84.4924 12.061 84.7613 11.9385 84.9657 11.6924C85.1632 11.4654 85.26 11.1918 85.26 10.8726Z" fill="white"></path>
                            <path d="M95.0867 10.4852C95.0867 11.1739 94.8843 11.7382 94.4795 12.1809C94.0551 12.636 93.4939 12.863 92.7908 12.863C92.1152 12.863 91.5764 12.6455 91.1736 12.2085C90.7727 11.7724 90.5723 11.2224 90.5723 10.5593C90.5723 9.86579 90.7786 9.29674 91.1932 8.85499C91.6077 8.41324 92.1651 8.19189 92.8681 8.19189C93.5437 8.19189 94.0884 8.40944 94.499 8.84549C94.8901 9.26919 95.0867 9.81639 95.0867 10.4852ZM94.0248 10.5175C94.0248 10.1042 93.9329 9.74989 93.75 9.45444C93.5339 9.09724 93.2289 8.91864 92.83 8.91864C92.4193 8.91864 92.1064 9.09724 91.8903 9.45444C91.7065 9.74989 91.6156 10.1099 91.6156 10.5355C91.6156 10.9488 91.7075 11.3031 91.8903 11.5986C92.1123 11.9558 92.4212 12.1344 92.8202 12.1344C93.2113 12.1344 93.5193 11.9529 93.7403 11.5891C93.929 11.2879 94.0248 10.9307 94.0248 10.5175Z" fill="white"></path>
                            <path d="M100.596 12.7613H99.5721V10.1963C99.5721 9.40592 99.2631 9.01071 98.6422 9.01071C98.3382 9.01071 98.0927 9.11902 97.903 9.33657C97.7133 9.55412 97.6185 9.81062 97.6185 10.1042V12.7604H96.5928V9.56267C96.5928 9.16937 96.5811 8.74282 96.5566 8.28111H97.4562L97.5041 8.98127H97.5325C97.6527 8.76372 97.8307 8.58417 98.0634 8.44072C98.3421 8.27352 98.652 8.18896 98.9933 8.18896C99.4225 8.18896 99.7804 8.32386 100.065 8.59462C100.42 8.92617 100.596 9.42112 100.596 10.0785V12.7613Z" fill="white"></path>
                            <path d="M107.493 9.02853H106.364V11.204C106.364 11.7569 106.565 12.0334 106.962 12.0334C107.146 12.0334 107.298 12.0182 107.418 11.9868L107.445 12.7421C107.242 12.8162 106.976 12.8532 106.649 12.8532C106.244 12.8532 105.929 12.7335 105.701 12.4941C105.473 12.2547 105.359 11.8519 105.359 11.2867V9.02853H104.686V8.28278H105.359V7.46198L106.363 7.16748V8.28183H107.492V9.02853H107.493Z" fill="white"></path>
                            <path d="M112.917 12.7612H111.891V10.2152C111.891 9.41243 111.582 9.01058 110.963 9.01058C110.488 9.01058 110.164 9.24333 109.986 9.70883C109.955 9.80668 109.938 9.92638 109.938 10.067V12.7602H108.914V6.22803H109.938V8.92698H109.957C110.28 8.43583 110.743 8.19073 111.342 8.19073C111.766 8.19073 112.117 8.32563 112.396 8.59638C112.743 8.93363 112.917 9.43523 112.917 10.0983V12.7612Z" fill="white"></path>
                            <path d="M118.514 10.3102C118.514 10.4888 118.5 10.6389 118.476 10.7614H115.403C115.416 11.2041 115.563 11.5414 115.847 11.7751C116.108 11.9841 116.443 12.0886 116.854 12.0886C117.308 12.0886 117.723 12.0183 118.096 11.8767L118.257 12.5683C117.82 12.7526 117.305 12.8448 116.71 12.8448C115.996 12.8448 115.434 12.6405 115.027 12.232C114.618 11.8235 114.416 11.2754 114.416 10.5876C114.416 9.91211 114.605 9.3497 114.985 8.9013C115.382 8.42251 115.919 8.18311 116.596 8.18311C117.259 8.18311 117.763 8.42251 118.103 8.9013C118.378 9.2813 118.514 9.75155 118.514 10.3102ZM117.536 10.0527C117.544 9.75725 117.476 9.50266 117.338 9.28796C117.16 9.01151 116.889 8.87281 116.522 8.87281C116.188 8.87281 115.915 9.00771 115.707 9.27846C115.537 9.49411 115.436 9.75155 115.403 10.0527H117.536Z" fill="white"></path>
                        </svg>